<svg width="292" height="67" viewBox="0 0 292 67" fill="none" xmlns="http://www.w3.org/2000/svg">
<g clip-path="url(#clip0)">
<path d="M38.7 41.57H39.388V42H30.057V41.613H30.702C31.1893 41.613 31.605 41.4267 31.949 41.054C32.293 40.6527 32.4363 40.2227 32.379 39.764L30.444 18.135L21.414 38.216C20.6113 39.9647 20.124 41.4267 19.952 42.602H19.522L8.514 18.737L6.665 39.764C6.60767 40.2227 6.751 40.6527 7.095 41.054C7.439 41.4267 7.84033 41.613 8.299 41.613H8.987V42H0.645V41.57H1.333C2.13567 41.57 2.82367 41.3263 3.397 40.839C3.999 40.3517 4.35733 39.6923 4.472 38.861L7.697 11.298H8.127L20.124 37.227L31.863 11.298H32.25L35.561 38.861C35.7043 40.0077 36.2777 40.8103 37.281 41.269C37.711 41.4697 38.184 41.57 38.7 41.57ZM64.4386 41.63H64.7346V42H57.1496V41.63H57.4456C57.9142 41.63 58.2719 41.4697 58.5186 41.149C58.7652 40.8283 58.8886 40.5323 58.8886 40.261C58.8886 39.965 58.8392 39.6813 58.7406 39.41L56.7056 34.489H47.3446L45.3096 39.299C45.1862 39.6197 45.1246 39.928 45.1246 40.224C45.1246 40.4953 45.2479 40.8037 45.4946 41.149C45.7412 41.4697 46.1112 41.63 46.6046 41.63H46.9006V42H39.8336V41.63H40.1296C40.6476 41.63 41.1656 41.4573 41.6836 41.112C42.2262 40.742 42.6702 40.1993 43.0156 39.484C48.4176 27.94 51.2296 21.8967 51.4516 21.354C51.8709 20.318 52.0929 19.6273 52.1176 19.282H52.4506L61.5896 39.484C62.3049 40.9147 63.2546 41.63 64.4386 41.63ZM47.8256 33.379H56.2616L52.1176 23.241L47.8256 33.379ZM66.6987 40.779C66.6247 40.483 66.5877 39.8787 66.5877 38.966C66.5877 38.0533 66.7481 37.1283 67.0687 36.191H67.5127C67.4881 36.413 67.4757 36.635 67.4757 36.857C67.4757 38.189 67.9074 39.2867 68.7707 40.15C69.6587 40.9887 70.8797 41.408 72.4337 41.408C74.0617 41.408 75.3321 41.038 76.2447 40.298C77.1574 39.5333 77.6137 38.559 77.6137 37.375C77.6137 36.1663 77.1697 35.1673 76.2817 34.378L68.8817 28.68C67.6977 27.6687 67.1057 26.312 67.1057 24.61C67.1057 23.648 67.3647 22.76 67.8827 21.946C68.4254 21.132 69.1654 20.4907 70.1027 20.022C71.0647 19.5287 72.1871 19.282 73.4697 19.282C74.7524 19.282 75.8871 19.393 76.8737 19.615H78.0947L78.1687 23.648H77.7617C77.7617 22.612 77.4041 21.8103 76.6887 21.243C75.9734 20.6757 74.9497 20.392 73.6177 20.392C72.2857 20.392 71.1881 20.7373 70.3247 21.428C69.4614 22.094 69.0297 22.9697 69.0297 24.055C69.0297 25.1157 69.5107 26.0407 70.4727 26.83L77.9467 32.602C79.0814 33.5393 79.6487 34.8467 79.6487 36.524C79.6487 38.2013 79.0074 39.6197 77.7247 40.779C76.4667 41.9383 74.9251 42.518 73.0997 42.518C71.8911 42.518 70.6824 42.37 69.4737 42.074C68.2651 41.778 67.3401 41.3463 66.6987 40.779ZM93.5576 20.873V39.669C93.5822 40.4337 93.9522 41.001 94.6676 41.371C94.9882 41.5437 95.3459 41.63 95.7406 41.63H96.1476V42H88.5256V41.63H88.9696C89.5616 41.63 90.0672 41.4327 90.4866 41.038C90.9059 40.6433 91.1279 40.1747 91.1526 39.632V20.873H84.4556C83.8882 20.873 83.4319 21.058 83.0866 21.428C82.7659 21.798 82.6056 22.242 82.6056 22.76V23.352H82.1986V19.171C82.6919 19.3683 83.3826 19.5163 84.2706 19.615C85.1832 19.7137 85.8616 19.763 86.3056 19.763H98.3676C100.144 19.763 101.525 19.5657 102.512 19.171V23.352H102.105V22.76C102.105 22.242 101.932 21.798 101.587 21.428C101.241 21.058 100.797 20.873 100.255 20.873H93.5576ZM105.587 41.63C106.179 41.63 106.673 41.445 107.067 41.075C107.487 40.6803 107.709 40.2117 107.733 39.669V22.094C107.733 21.5513 107.524 21.095 107.104 20.725C106.685 20.355 106.179 20.17 105.587 20.17H105.069V19.8H115.873C116.885 19.8 117.773 19.726 118.537 19.578C119.302 19.43 119.795 19.3067 120.017 19.208V23.426L119.61 23.389V22.834C119.61 22.316 119.438 21.872 119.092 21.502C118.747 21.132 118.303 20.947 117.76 20.947H110.064V30.345H116.391C116.885 30.345 117.255 30.197 117.501 29.901C117.773 29.605 117.908 29.235 117.908 28.791V28.31H118.315V33.49H117.908V33.009C117.908 32.3183 117.649 31.8497 117.131 31.603C116.934 31.529 116.724 31.4797 116.502 31.455H110.064V40.853H115.873C117.008 40.853 117.958 40.6557 118.722 40.261C119.512 39.8663 120.104 39.3977 120.498 38.855C120.918 38.3123 121.337 37.597 121.756 36.709H122.126L120.091 42H105.069V41.63H105.587ZM131.825 20.947H129.864V39.632C129.889 40.3967 130.234 40.9763 130.9 41.371C131.221 41.5437 131.578 41.63 131.973 41.63H132.454L132.491 42H124.906V41.63H125.424C125.991 41.63 126.472 41.445 126.867 41.075C127.286 40.6803 127.496 40.2117 127.496 39.669V22.094C127.496 21.5513 127.286 21.095 126.867 20.725C126.472 20.355 125.991 20.17 125.424 20.17H124.906V19.8H134.193C136.512 19.8 138.337 20.3303 139.669 21.391C141.026 22.4517 141.704 23.8453 141.704 25.572C141.704 27.2987 141.161 28.7417 140.076 29.901C138.991 31.0603 137.609 31.7263 135.932 31.899C136.721 32.2443 137.671 33.2063 138.781 34.785C138.756 34.785 139.176 35.3277 140.039 36.413C140.927 37.4983 141.63 38.3493 142.148 38.966C142.691 39.558 143.135 40.0143 143.48 40.335C144.393 41.1983 145.441 41.63 146.625 41.63V42H145.478C143.529 42 142 41.6177 140.89 40.853C140.051 40.2857 139.287 39.5827 138.596 38.744C138.448 38.5467 137.819 37.6833 136.709 36.154C135.624 34.6 135.044 33.7737 134.97 33.675C133.638 32.0223 132.392 31.196 131.233 31.196V30.826C134.119 30.826 135.858 30.678 136.45 30.382C137.264 29.9627 137.819 29.5187 138.115 29.05C138.732 28.0633 139.04 26.978 139.04 25.794C139.04 24.2893 138.596 23.13 137.708 22.316C136.82 21.502 135.624 21.058 134.119 20.984C133.453 20.9593 132.688 20.947 131.825 20.947Z" fill="white"/>
<path d="M153.623 40.237C153.537 39.8357 153.494 39.0617 153.494 37.915C153.494 36.7683 153.709 35.55 154.139 34.26H154.526C154.497 34.5753 154.483 34.8907 154.483 35.206C154.483 36.9547 155.013 38.4167 156.074 39.592C157.135 40.7387 158.539 41.312 160.288 41.312C162.094 41.312 163.57 40.7673 164.717 39.678C165.892 38.5887 166.48 37.227 166.48 35.593C166.48 33.9303 165.921 32.583 164.803 31.551L156.547 23.897C154.999 22.4637 154.225 20.7293 154.225 18.694C154.225 16.6587 154.899 14.9243 156.246 13.491C157.622 12.029 159.471 11.298 161.793 11.298C162.882 11.298 164.115 11.4413 165.491 11.728H167.168V17.017H166.781C166.781 15.6697 166.308 14.5947 165.362 13.792C164.445 12.9893 163.255 12.588 161.793 12.588C160.331 12.588 159.098 13.0753 158.095 14.05C157.12 15.0247 156.633 16.243 156.633 17.705C156.633 19.167 157.206 20.4283 158.353 21.489L166.824 29.315C168.257 30.6337 168.974 32.4397 168.974 34.733C168.974 37.0263 168.243 38.9183 166.781 40.409C165.319 41.871 163.37 42.602 160.933 42.602C159.672 42.602 158.324 42.4013 156.891 42C155.486 41.6273 154.397 41.0397 153.623 40.237ZM173.961 41.63C174.553 41.63 175.047 41.445 175.441 41.075C175.861 40.6803 176.083 40.2117 176.107 39.669V22.094C176.107 21.5513 175.898 21.095 175.478 20.725C175.059 20.355 174.553 20.17 173.961 20.17H173.443V19.8H184.247C185.259 19.8 186.147 19.726 186.911 19.578C187.676 19.43 188.169 19.3067 188.391 19.208V23.426L187.984 23.389V22.834C187.984 22.316 187.812 21.872 187.466 21.502C187.121 21.132 186.677 20.947 186.134 20.947H178.438V30.345H184.765C185.259 30.345 185.629 30.197 185.875 29.901C186.147 29.605 186.282 29.235 186.282 28.791V28.31H186.689V33.49H186.282V33.009C186.282 32.3183 186.023 31.8497 185.505 31.603C185.308 31.529 185.098 31.4797 184.876 31.455H178.438V40.853H184.247C185.382 40.853 186.332 40.6557 187.096 40.261C187.886 39.8663 188.478 39.3977 188.872 38.855C189.292 38.3123 189.711 37.597 190.13 36.709H190.5L188.465 42H173.443V41.63H173.961ZM216.026 41.63H216.322V42H208.737V41.63H209.033C209.502 41.63 209.86 41.4697 210.106 41.149C210.353 40.8283 210.476 40.5323 210.476 40.261C210.476 39.965 210.427 39.6813 210.328 39.41L208.293 34.489H198.932L196.897 39.299C196.774 39.6197 196.712 39.928 196.712 40.224C196.712 40.4953 196.836 40.8037 197.082 41.149C197.329 41.4697 197.699 41.63 198.192 41.63H198.488V42H191.421V41.63H191.717C192.235 41.63 192.753 41.4573 193.271 41.112C193.814 40.742 194.258 40.1993 194.603 39.484C200.005 27.94 202.817 21.8967 203.039 21.354C203.459 20.318 203.681 19.6273 203.705 19.282H204.038L213.177 39.484C213.893 40.9147 214.842 41.63 216.026 41.63ZM199.413 33.379H207.849L203.705 23.241L199.413 33.379ZM225.095 20.947H223.134V39.632C223.158 40.3967 223.504 40.9763 224.17 41.371C224.49 41.5437 224.848 41.63 225.243 41.63H225.724L225.761 42H218.176V41.63H218.694C219.261 41.63 219.742 41.445 220.137 41.075C220.556 40.6803 220.766 40.2117 220.766 39.669V22.094C220.766 21.5513 220.556 21.095 220.137 20.725C219.742 20.355 219.261 20.17 218.694 20.17H218.176V19.8H227.463C229.781 19.8 231.607 20.3303 232.939 21.391C234.295 22.4517 234.974 23.8453 234.974 25.572C234.974 27.2987 234.431 28.7417 233.346 29.901C232.26 31.0603 230.879 31.7263 229.202 31.899C229.991 32.2443 230.941 33.2063 232.051 34.785C232.026 34.785 232.445 35.3277 233.309 36.413C234.197 37.4983 234.9 38.3493 235.418 38.966C235.96 39.558 236.404 40.0143 236.75 40.335C237.662 41.1983 238.711 41.63 239.895 41.63V42H238.748C236.799 42 235.27 41.6177 234.16 40.853C233.321 40.2857 232.556 39.5827 231.866 38.744C231.718 38.5467 231.089 37.6833 229.979 36.154C228.893 34.6 228.314 33.7737 228.24 33.675C226.908 32.0223 225.662 31.196 224.503 31.196V30.826C227.389 30.826 229.128 30.678 229.72 30.382C230.534 29.9627 231.089 29.5187 231.385 29.05C232.001 28.0633 232.31 26.978 232.31 25.794C232.31 24.2893 231.866 23.13 230.978 22.316C230.09 21.502 228.893 21.058 227.389 20.984C226.723 20.9593 225.958 20.947 225.095 20.947ZM252.097 42.518C248.323 42.4933 245.338 41.445 243.143 39.373C240.972 37.301 239.887 34.4767 239.887 30.9C239.887 27.2987 240.972 24.462 243.143 22.39C245.338 20.318 248.323 19.282 252.097 19.282C253.626 19.282 255.168 19.4793 256.722 19.874C258.276 20.2687 259.62 20.8113 260.755 21.502L261.569 26.756H261.236C260.175 22.5133 257.117 20.392 252.06 20.392C249.125 20.392 246.806 21.3293 245.104 23.204C243.402 25.0787 242.551 27.644 242.551 30.9C242.551 33.0213 242.933 34.8713 243.698 36.45C244.463 38.004 245.573 39.2127 247.028 40.076C248.483 40.9393 250.173 41.371 252.097 41.371C254.021 41.371 255.698 41.0873 257.129 40.52C258.584 39.928 259.781 38.966 260.718 37.634C261.68 36.302 262.223 34.6493 262.346 32.676H262.679L262.272 37.745C261.31 39.225 259.916 40.3967 258.091 41.26C256.266 42.0987 254.268 42.518 252.097 42.518ZM282.625 41.63C283.192 41.63 283.686 41.445 284.105 41.075C284.524 40.6803 284.746 40.2117 284.771 39.669V31.603H271.118V39.669C271.143 40.2117 271.365 40.6803 271.784 41.075C272.203 41.445 272.697 41.63 273.264 41.63H273.708V42H266.16V41.63H266.604C267.196 41.63 267.689 41.4327 268.084 41.038C268.503 40.6433 268.725 40.1747 268.75 39.632V22.168C268.725 21.6253 268.503 21.1567 268.084 20.762C267.665 20.3673 267.171 20.17 266.604 20.17H266.16V19.8H273.708V20.17H273.264C272.697 20.17 272.203 20.3673 271.784 20.762C271.365 21.132 271.143 21.5883 271.118 22.131V30.493H284.771V22.168C284.771 21.6253 284.611 21.206 284.29 20.91C283.772 20.4167 283.217 20.17 282.625 20.17H282.181V19.8H289.729V20.17H289.285C288.718 20.17 288.224 20.355 287.805 20.725C287.386 21.095 287.164 21.5513 287.139 22.094V39.669C287.164 40.2117 287.324 40.6187 287.62 40.89C288.163 41.3833 288.718 41.63 289.285 41.63H289.729V42H282.181V41.63H282.625Z" fill="white"/>
<line x1="41.005" y1="13.5" x2="144" y2="14.5198" stroke="#B9971D"/>
<line y1="48.5" x2="290" y2="48.5" stroke="#B9971D"/>
<line x1="172" y1="14.5" x2="290" y2="14.5" stroke="#B9971D"/>
<path d="M276.322 55.928C277.51 54.74 278.95 54.146 280.642 54.146C282.334 54.146 283.774 54.74 284.962 55.928C286.15 57.116 286.744 58.556 286.744 60.248C286.744 61.94 286.15 63.38 284.962 64.568C283.774 65.756 282.334 66.35 280.642 66.35C278.95 66.35 277.51 65.756 276.322 64.568C275.134 63.38 274.54 61.94 274.54 60.248C274.54 58.556 275.134 57.116 276.322 55.928ZM277.078 63.812C278.05 64.784 279.22 65.27 280.588 65.27C281.992 65.27 283.18 64.784 284.152 63.812C285.16 62.804 285.664 61.616 285.664 60.248C285.664 58.88 285.16 57.71 284.152 56.738C283.18 55.73 281.992 55.226 280.588 55.226C279.22 55.226 278.05 55.73 277.078 56.738C276.106 57.71 275.62 58.88 275.62 60.248C275.62 61.616 276.106 62.804 277.078 63.812ZM280.804 56.792C281.488 56.792 282.028 56.954 282.424 57.278C282.856 57.602 283.072 58.016 283.072 58.52C283.072 58.988 282.928 59.402 282.64 59.762C282.352 60.086 281.974 60.284 281.506 60.356C281.794 60.392 282.1 60.68 282.424 61.22C282.784 61.76 283.072 62.192 283.288 62.516C283.54 62.84 283.828 63.056 284.152 63.164V63.272H283.504C282.784 63.272 282.28 63.128 281.992 62.84C281.704 62.552 281.506 62.336 281.398 62.192C281.29 62.048 281.146 61.814 280.966 61.49C280.498 60.59 280.192 60.14 280.048 60.14V60.032H280.588C281.308 59.888 281.65 59.402 281.614 58.574C281.614 57.746 281.182 57.332 280.318 57.332L279.67 57.278V62.57C279.67 62.966 279.85 63.164 280.21 63.164H280.372V63.272H277.672V63.164H277.78C278.14 63.164 278.338 62.984 278.374 62.624V57.494C278.338 57.098 278.14 56.9 277.78 56.9H277.672V56.792H279.67H280.804Z" fill="white"/>
<path d="M2.155 56.3H5.4C6.214 56.3 6.93633 56.4613 7.567 56.784C8.19767 57.1067 8.68533 57.5613 9.03 58.148C9.382 58.7273 9.558 59.3947 9.558 60.15C9.558 60.9053 9.382 61.5763 9.03 62.163C8.68533 62.7423 8.19767 63.1933 7.567 63.516C6.93633 63.8387 6.214 64 5.4 64H2.155V56.3ZM5.334 63.043C5.95733 63.043 6.50367 62.922 6.973 62.68C7.44967 62.438 7.81633 62.1007 8.073 61.668C8.32967 61.228 8.458 60.722 8.458 60.15C8.458 59.578 8.32967 59.0757 8.073 58.643C7.81633 58.203 7.44967 57.862 6.973 57.62C6.50367 57.378 5.95733 57.257 5.334 57.257H3.255V63.043H5.334ZM22.7709 63.043V64H17.1829V56.3H22.6169V57.257H18.2829V59.622H22.1439V60.557H18.2829V63.043H22.7709ZM30.492 56.3H31.592V63.043H35.761V64H30.492V56.3ZM42.9633 56.3H44.0633V64H42.9633V56.3ZM58.9214 56.3L55.5444 64H54.4554L51.0674 56.3H52.2554L55.0274 62.625L57.8214 56.3H58.9214ZM71.4313 63.043V64H65.8433V56.3H71.2773V57.257H66.9433V59.622H70.8043V60.557H66.9433V63.043H71.4313ZM84.3004 64L82.6394 61.635C82.4341 61.6497 82.2728 61.657 82.1554 61.657H80.2524V64H79.1524V56.3H82.1554C83.1528 56.3 83.9374 56.5383 84.5094 57.015C85.0814 57.4917 85.3674 58.148 85.3674 58.984C85.3674 59.578 85.2208 60.084 84.9274 60.502C84.6341 60.92 84.2161 61.2243 83.6734 61.415L85.4994 64H84.3004ZM82.1224 60.722C82.8191 60.722 83.3508 60.5717 83.7174 60.271C84.0841 59.9703 84.2674 59.5413 84.2674 58.984C84.2674 58.4267 84.0841 58.0013 83.7174 57.708C83.3508 57.4073 82.8191 57.257 82.1224 57.257H80.2524V60.722H82.1224ZM93.0846 56.3H94.1846V64H93.0846V56.3ZM109.052 56.3V64H108.15L103.53 58.258V64H102.43V56.3H103.332L107.952 62.042V56.3H109.052ZM122.632 60.106H123.688V63.109C123.306 63.4243 122.863 63.6663 122.357 63.835C121.851 64.0037 121.323 64.088 120.773 64.088C119.995 64.088 119.295 63.9193 118.672 63.582C118.048 63.2373 117.557 62.768 117.198 62.174C116.846 61.5727 116.67 60.898 116.67 60.15C116.67 59.402 116.846 58.7273 117.198 58.126C117.557 57.5247 118.048 57.0553 118.672 56.718C119.302 56.3807 120.01 56.212 120.795 56.212C121.411 56.212 121.968 56.3147 122.467 56.52C122.973 56.718 123.402 57.0113 123.754 57.4L123.072 58.082C122.456 57.488 121.711 57.191 120.839 57.191C120.252 57.191 119.724 57.3193 119.255 57.576C118.793 57.8253 118.43 58.1773 118.166 58.632C117.902 59.0793 117.77 59.5853 117.77 60.15C117.77 60.7073 117.902 61.2133 118.166 61.668C118.43 62.1153 118.793 62.4673 119.255 62.724C119.724 62.9807 120.248 63.109 120.828 63.109C121.517 63.109 122.118 62.944 122.632 62.614V60.106ZM140.628 56.3H141.728V63.043H145.897V64H140.628V56.3ZM158.687 63.043V64H153.099V56.3H158.533V57.257H154.199V59.622H158.06V60.557H154.199V63.043H158.687ZM171.314 62.075H167.222L166.375 64H165.242L168.729 56.3H169.818L173.316 64H172.161L171.314 62.075ZM170.929 61.195L169.268 57.422L167.607 61.195H170.929ZM180.405 56.3H183.65C184.464 56.3 185.186 56.4613 185.817 56.784C186.448 57.1067 186.935 57.5613 187.28 58.148C187.632 58.7273 187.808 59.3947 187.808 60.15C187.808 60.9053 187.632 61.5763 187.28 62.163C186.935 62.7423 186.448 63.1933 185.817 63.516C185.186 63.8387 184.464 64 183.65 64H180.405V56.3ZM183.584 63.043C184.207 63.043 184.754 62.922 185.223 62.68C185.7 62.438 186.066 62.1007 186.323 61.668C186.58 61.228 186.708 60.722 186.708 60.15C186.708 59.578 186.58 59.0757 186.323 58.643C186.066 58.203 185.7 57.862 185.223 57.62C184.754 57.378 184.207 57.257 183.584 57.257H181.505V63.043H183.584ZM201.021 63.043V64H195.433V56.3H200.867V57.257H196.533V59.622H200.394V60.557H196.533V63.043H201.021ZM213.89 64L212.229 61.635C212.024 61.6497 211.862 61.657 211.745 61.657H209.842V64H208.742V56.3H211.745C212.742 56.3 213.527 56.5383 214.099 57.015C214.671 57.4917 214.957 58.148 214.957 58.984C214.957 59.578 214.81 60.084 214.517 60.502C214.224 60.92 213.806 61.2243 213.263 61.415L215.089 64H213.89ZM211.712 60.722C212.409 60.722 212.94 60.5717 213.307 60.271C213.674 59.9703 213.857 59.5413 213.857 58.984C213.857 58.4267 213.674 58.0013 213.307 57.708C212.94 57.4073 212.409 57.257 211.712 57.257H209.842V60.722H211.712ZM224.918 64.088C224.339 64.088 223.778 64 223.235 63.824C222.7 63.6407 222.278 63.406 221.97 63.12L222.377 62.262C222.67 62.526 223.044 62.7423 223.499 62.911C223.961 63.0723 224.434 63.153 224.918 63.153C225.556 63.153 226.033 63.0467 226.348 62.834C226.663 62.614 226.821 62.3243 226.821 61.965C226.821 61.701 226.733 61.4883 226.557 61.327C226.388 61.1583 226.176 61.03 225.919 60.942C225.67 60.854 225.314 60.755 224.852 60.645C224.273 60.5057 223.803 60.3663 223.444 60.227C223.092 60.0877 222.788 59.875 222.531 59.589C222.282 59.2957 222.157 58.9033 222.157 58.412C222.157 58.0013 222.263 57.631 222.476 57.301C222.696 56.971 223.026 56.707 223.466 56.509C223.906 56.311 224.452 56.212 225.105 56.212C225.56 56.212 226.007 56.2707 226.447 56.388C226.887 56.5053 227.265 56.674 227.58 56.894L227.217 57.774C226.894 57.5687 226.55 57.4147 226.183 57.312C225.816 57.202 225.457 57.147 225.105 57.147C224.482 57.147 224.012 57.2607 223.697 57.488C223.389 57.7153 223.235 58.0087 223.235 58.368C223.235 58.632 223.323 58.8483 223.499 59.017C223.675 59.1783 223.891 59.3067 224.148 59.402C224.412 59.49 224.768 59.5853 225.215 59.688C225.794 59.8273 226.26 59.9667 226.612 60.106C226.964 60.2453 227.265 60.458 227.514 60.744C227.771 61.03 227.899 61.415 227.899 61.899C227.899 62.3023 227.789 62.6727 227.569 63.01C227.349 63.34 227.015 63.604 226.568 63.802C226.121 63.9927 225.571 64.088 224.918 64.088ZM242.068 56.3V64H240.968V60.568H236.546V64H235.446V56.3H236.546V59.611H240.968V56.3H242.068ZM250.313 56.3H251.413V64H250.313V56.3ZM262.661 56.3C263.658 56.3 264.443 56.5383 265.015 57.015C265.587 57.4917 265.873 58.148 265.873 58.984C265.873 59.82 265.587 60.4763 265.015 60.953C264.443 61.4297 263.658 61.668 262.661 61.668H260.758V64H259.658V56.3H262.661ZM262.628 60.711C263.325 60.711 263.856 60.5643 264.223 60.271C264.59 59.9703 264.773 59.5413 264.773 58.984C264.773 58.4267 264.59 58.0013 264.223 57.708C263.856 57.4073 263.325 57.257 262.628 57.257H260.758V60.711H262.628Z" fill="white"/>
</g>
<defs>
<clipPath id="clip0">
<rect width="292" height="67" fill="white"/>
</clipPath>
</defs>
</svg>
