<svg width="292" height="92" viewBox="0 0 292 92" fill="none" xmlns="http://www.w3.org/2000/svg">
<g clip-path="url(#clip0)">
<path d="M38.7 41.57H39.388V42H30.057V41.613H30.702C31.1893 41.613 31.605 41.4267 31.949 41.054C32.293 40.6527 32.4363 40.2227 32.379 39.764L30.444 18.135L21.414 38.216C20.6113 39.9647 20.124 41.4267 19.952 42.602H19.522L8.514 18.737L6.665 39.764C6.60767 40.2227 6.751 40.6527 7.095 41.054C7.439 41.4267 7.84033 41.613 8.299 41.613H8.987V42H0.645V41.57H1.333C2.13567 41.57 2.82367 41.3263 3.397 40.839C3.999 40.3517 4.35733 39.6923 4.472 38.861L7.697 11.298H8.127L20.124 37.227L31.863 11.298H32.25L35.561 38.861C35.7043 40.0077 36.2777 40.8103 37.281 41.269C37.711 41.4697 38.184 41.57 38.7 41.57ZM64.4386 41.63H64.7346V42H57.1496V41.63H57.4456C57.9142 41.63 58.2719 41.4697 58.5186 41.149C58.7652 40.8283 58.8886 40.5323 58.8886 40.261C58.8886 39.965 58.8392 39.6813 58.7406 39.41L56.7056 34.489H47.3446L45.3096 39.299C45.1862 39.6197 45.1246 39.928 45.1246 40.224C45.1246 40.4953 45.2479 40.8037 45.4946 41.149C45.7412 41.4697 46.1112 41.63 46.6046 41.63H46.9006V42H39.8336V41.63H40.1296C40.6476 41.63 41.1656 41.4573 41.6836 41.112C42.2262 40.742 42.6702 40.1993 43.0156 39.484C48.4176 27.94 51.2296 21.8967 51.4516 21.354C51.8709 20.318 52.0929 19.6273 52.1176 19.282H52.4506L61.5896 39.484C62.3049 40.9147 63.2546 41.63 64.4386 41.63ZM47.8256 33.379H56.2616L52.1176 23.241L47.8256 33.379ZM66.6987 40.779C66.6247 40.483 66.5877 39.8787 66.5877 38.966C66.5877 38.0533 66.7481 37.1283 67.0687 36.191H67.5127C67.4881 36.413 67.4757 36.635 67.4757 36.857C67.4757 38.189 67.9074 39.2867 68.7707 40.15C69.6587 40.9887 70.8797 41.408 72.4337 41.408C74.0617 41.408 75.3321 41.038 76.2447 40.298C77.1574 39.5333 77.6137 38.559 77.6137 37.375C77.6137 36.1663 77.1697 35.1673 76.2817 34.378L68.8817 28.68C67.6977 27.6687 67.1057 26.312 67.1057 24.61C67.1057 23.648 67.3647 22.76 67.8827 21.946C68.4254 21.132 69.1654 20.4907 70.1027 20.022C71.0647 19.5287 72.1871 19.282 73.4697 19.282C74.7524 19.282 75.8871 19.393 76.8737 19.615H78.0947L78.1687 23.648H77.7617C77.7617 22.612 77.4041 21.8103 76.6887 21.243C75.9734 20.6757 74.9497 20.392 73.6177 20.392C72.2857 20.392 71.1881 20.7373 70.3247 21.428C69.4614 22.094 69.0297 22.9697 69.0297 24.055C69.0297 25.1157 69.5107 26.0407 70.4727 26.83L77.9467 32.602C79.0814 33.5393 79.6487 34.8467 79.6487 36.524C79.6487 38.2013 79.0074 39.6197 77.7247 40.779C76.4667 41.9383 74.9251 42.518 73.0997 42.518C71.8911 42.518 70.6824 42.37 69.4737 42.074C68.2651 41.778 67.3401 41.3463 66.6987 40.779ZM93.5576 20.873V39.669C93.5822 40.4337 93.9522 41.001 94.6676 41.371C94.9882 41.5437 95.3459 41.63 95.7406 41.63H96.1476V42H88.5256V41.63H88.9696C89.5616 41.63 90.0672 41.4327 90.4866 41.038C90.9059 40.6433 91.1279 40.1747 91.1526 39.632V20.873H84.4556C83.8882 20.873 83.4319 21.058 83.0866 21.428C82.7659 21.798 82.6056 22.242 82.6056 22.76V23.352H82.1986V19.171C82.6919 19.3683 83.3826 19.5163 84.2706 19.615C85.1832 19.7137 85.8616 19.763 86.3056 19.763H98.3676C100.144 19.763 101.525 19.5657 102.512 19.171V23.352H102.105V22.76C102.105 22.242 101.932 21.798 101.587 21.428C101.241 21.058 100.797 20.873 100.255 20.873H93.5576ZM105.587 41.63C106.179 41.63 106.673 41.445 107.067 41.075C107.487 40.6803 107.709 40.2117 107.733 39.669V22.094C107.733 21.5513 107.524 21.095 107.104 20.725C106.685 20.355 106.179 20.17 105.587 20.17H105.069V19.8H115.873C116.885 19.8 117.773 19.726 118.537 19.578C119.302 19.43 119.795 19.3067 120.017 19.208V23.426L119.61 23.389V22.834C119.61 22.316 119.438 21.872 119.092 21.502C118.747 21.132 118.303 20.947 117.76 20.947H110.064V30.345H116.391C116.885 30.345 117.255 30.197 117.501 29.901C117.773 29.605 117.908 29.235 117.908 28.791V28.31H118.315V33.49H117.908V33.009C117.908 32.3183 117.649 31.8497 117.131 31.603C116.934 31.529 116.724 31.4797 116.502 31.455H110.064V40.853H115.873C117.008 40.853 117.958 40.6557 118.722 40.261C119.512 39.8663 120.104 39.3977 120.498 38.855C120.918 38.3123 121.337 37.597 121.756 36.709H122.126L120.091 42H105.069V41.63H105.587ZM131.825 20.947H129.864V39.632C129.889 40.3967 130.234 40.9763 130.9 41.371C131.221 41.5437 131.578 41.63 131.973 41.63H132.454L132.491 42H124.906V41.63H125.424C125.991 41.63 126.472 41.445 126.867 41.075C127.286 40.6803 127.496 40.2117 127.496 39.669V22.094C127.496 21.5513 127.286 21.095 126.867 20.725C126.472 20.355 125.991 20.17 125.424 20.17H124.906V19.8H134.193C136.512 19.8 138.337 20.3303 139.669 21.391C141.026 22.4517 141.704 23.8453 141.704 25.572C141.704 27.2987 141.161 28.7417 140.076 29.901C138.991 31.0603 137.609 31.7263 135.932 31.899C136.721 32.2443 137.671 33.2063 138.781 34.785C138.756 34.785 139.176 35.3277 140.039 36.413C140.927 37.4983 141.63 38.3493 142.148 38.966C142.691 39.558 143.135 40.0143 143.48 40.335C144.393 41.1983 145.441 41.63 146.625 41.63V42H145.478C143.529 42 142 41.6177 140.89 40.853C140.051 40.2857 139.287 39.5827 138.596 38.744C138.448 38.5467 137.819 37.6833 136.709 36.154C135.624 34.6 135.044 33.7737 134.97 33.675C133.638 32.0223 132.392 31.196 131.233 31.196V30.826C134.119 30.826 135.858 30.678 136.45 30.382C137.264 29.9627 137.819 29.5187 138.115 29.05C138.732 28.0633 139.04 26.978 139.04 25.794C139.04 24.2893 138.596 23.13 137.708 22.316C136.82 21.502 135.624 21.058 134.119 20.984C133.453 20.9593 132.688 20.947 131.825 20.947Z" fill="white"/>
<path d="M153.623 40.237C153.537 39.8357 153.494 39.0617 153.494 37.915C153.494 36.7683 153.709 35.55 154.139 34.26H154.526C154.497 34.5753 154.483 34.8907 154.483 35.206C154.483 36.9547 155.013 38.4167 156.074 39.592C157.135 40.7387 158.539 41.312 160.288 41.312C162.094 41.312 163.57 40.7673 164.717 39.678C165.892 38.5887 166.48 37.227 166.48 35.593C166.48 33.9303 165.921 32.583 164.803 31.551L156.547 23.897C154.999 22.4637 154.225 20.7293 154.225 18.694C154.225 16.6587 154.899 14.9243 156.246 13.491C157.622 12.029 159.471 11.298 161.793 11.298C162.882 11.298 164.115 11.4413 165.491 11.728H167.168V17.017H166.781C166.781 15.6697 166.308 14.5947 165.362 13.792C164.445 12.9893 163.255 12.588 161.793 12.588C160.331 12.588 159.098 13.0753 158.095 14.05C157.12 15.0247 156.633 16.243 156.633 17.705C156.633 19.167 157.206 20.4283 158.353 21.489L166.824 29.315C168.257 30.6337 168.974 32.4397 168.974 34.733C168.974 37.0263 168.243 38.9183 166.781 40.409C165.319 41.871 163.37 42.602 160.933 42.602C159.672 42.602 158.324 42.4013 156.891 42C155.486 41.6273 154.397 41.0397 153.623 40.237ZM173.961 41.63C174.553 41.63 175.047 41.445 175.441 41.075C175.861 40.6803 176.083 40.2117 176.107 39.669V22.094C176.107 21.5513 175.898 21.095 175.478 20.725C175.059 20.355 174.553 20.17 173.961 20.17H173.443V19.8H184.247C185.259 19.8 186.147 19.726 186.911 19.578C187.676 19.43 188.169 19.3067 188.391 19.208V23.426L187.984 23.389V22.834C187.984 22.316 187.812 21.872 187.466 21.502C187.121 21.132 186.677 20.947 186.134 20.947H178.438V30.345H184.765C185.259 30.345 185.629 30.197 185.875 29.901C186.147 29.605 186.282 29.235 186.282 28.791V28.31H186.689V33.49H186.282V33.009C186.282 32.3183 186.023 31.8497 185.505 31.603C185.308 31.529 185.098 31.4797 184.876 31.455H178.438V40.853H184.247C185.382 40.853 186.332 40.6557 187.096 40.261C187.886 39.8663 188.478 39.3977 188.872 38.855C189.292 38.3123 189.711 37.597 190.13 36.709H190.5L188.465 42H173.443V41.63H173.961ZM216.026 41.63H216.322V42H208.737V41.63H209.033C209.502 41.63 209.86 41.4697 210.106 41.149C210.353 40.8283 210.476 40.5323 210.476 40.261C210.476 39.965 210.427 39.6813 210.328 39.41L208.293 34.489H198.932L196.897 39.299C196.774 39.6197 196.712 39.928 196.712 40.224C196.712 40.4953 196.836 40.8037 197.082 41.149C197.329 41.4697 197.699 41.63 198.192 41.63H198.488V42H191.421V41.63H191.717C192.235 41.63 192.753 41.4573 193.271 41.112C193.814 40.742 194.258 40.1993 194.603 39.484C200.005 27.94 202.817 21.8967 203.039 21.354C203.459 20.318 203.681 19.6273 203.705 19.282H204.038L213.177 39.484C213.893 40.9147 214.842 41.63 216.026 41.63ZM199.413 33.379H207.849L203.705 23.241L199.413 33.379ZM225.095 20.947H223.134V39.632C223.158 40.3967 223.504 40.9763 224.17 41.371C224.49 41.5437 224.848 41.63 225.243 41.63H225.724L225.761 42H218.176V41.63H218.694C219.261 41.63 219.742 41.445 220.137 41.075C220.556 40.6803 220.766 40.2117 220.766 39.669V22.094C220.766 21.5513 220.556 21.095 220.137 20.725C219.742 20.355 219.261 20.17 218.694 20.17H218.176V19.8H227.463C229.781 19.8 231.607 20.3303 232.939 21.391C234.295 22.4517 234.974 23.8453 234.974 25.572C234.974 27.2987 234.431 28.7417 233.346 29.901C232.26 31.0603 230.879 31.7263 229.202 31.899C229.991 32.2443 230.941 33.2063 232.051 34.785C232.026 34.785 232.445 35.3277 233.309 36.413C234.197 37.4983 234.9 38.3493 235.418 38.966C235.96 39.558 236.404 40.0143 236.75 40.335C237.662 41.1983 238.711 41.63 239.895 41.63V42H238.748C236.799 42 235.27 41.6177 234.16 40.853C233.321 40.2857 232.556 39.5827 231.866 38.744C231.718 38.5467 231.089 37.6833 229.979 36.154C228.893 34.6 228.314 33.7737 228.24 33.675C226.908 32.0223 225.662 31.196 224.503 31.196V30.826C227.389 30.826 229.128 30.678 229.72 30.382C230.534 29.9627 231.089 29.5187 231.385 29.05C232.001 28.0633 232.31 26.978 232.31 25.794C232.31 24.2893 231.866 23.13 230.978 22.316C230.09 21.502 228.893 21.058 227.389 20.984C226.723 20.9593 225.958 20.947 225.095 20.947ZM252.097 42.518C248.323 42.4933 245.338 41.445 243.143 39.373C240.972 37.301 239.887 34.4767 239.887 30.9C239.887 27.2987 240.972 24.462 243.143 22.39C245.338 20.318 248.323 19.282 252.097 19.282C253.626 19.282 255.168 19.4793 256.722 19.874C258.276 20.2687 259.62 20.8113 260.755 21.502L261.569 26.756H261.236C260.175 22.5133 257.117 20.392 252.06 20.392C249.125 20.392 246.806 21.3293 245.104 23.204C243.402 25.0787 242.551 27.644 242.551 30.9C242.551 33.0213 242.933 34.8713 243.698 36.45C244.463 38.004 245.573 39.2127 247.028 40.076C248.483 40.9393 250.173 41.371 252.097 41.371C254.021 41.371 255.698 41.0873 257.129 40.52C258.584 39.928 259.781 38.966 260.718 37.634C261.68 36.302 262.223 34.6493 262.346 32.676H262.679L262.272 37.745C261.31 39.225 259.916 40.3967 258.091 41.26C256.266 42.0987 254.268 42.518 252.097 42.518ZM282.625 41.63C283.192 41.63 283.686 41.445 284.105 41.075C284.524 40.6803 284.746 40.2117 284.771 39.669V31.603H271.118V39.669C271.143 40.2117 271.365 40.6803 271.784 41.075C272.203 41.445 272.697 41.63 273.264 41.63H273.708V42H266.16V41.63H266.604C267.196 41.63 267.689 41.4327 268.084 41.038C268.503 40.6433 268.725 40.1747 268.75 39.632V22.168C268.725 21.6253 268.503 21.1567 268.084 20.762C267.665 20.3673 267.171 20.17 266.604 20.17H266.16V19.8H273.708V20.17H273.264C272.697 20.17 272.203 20.3673 271.784 20.762C271.365 21.132 271.143 21.5883 271.118 22.131V30.493H284.771V22.168C284.771 21.6253 284.611 21.206 284.29 20.91C283.772 20.4167 283.217 20.17 282.625 20.17H282.181V19.8H289.729V20.17H289.285C288.718 20.17 288.224 20.355 287.805 20.725C287.386 21.095 287.164 21.5513 287.139 22.094V39.669C287.164 40.2117 287.324 40.6187 287.62 40.89C288.163 41.3833 288.718 41.63 289.285 41.63H289.729V42H282.181V41.63H282.625Z" fill="white"/>
<line x1="41.005" y1="13.5" x2="144" y2="14.5198" stroke="#B9971D"/>
<line y1="48.5" x2="290" y2="48.5" stroke="#B9971D"/>
<line y1="72.5" x2="290" y2="72.5" stroke="#B9971D"/>
<line x1="172" y1="14.5" x2="290" y2="14.5" stroke="#B9971D"/>
<path d="M276.322 80.928C277.51 79.74 278.95 79.146 280.642 79.146C282.334 79.146 283.774 79.74 284.962 80.928C286.15 82.116 286.744 83.556 286.744 85.248C286.744 86.94 286.15 88.38 284.962 89.568C283.774 90.756 282.334 91.35 280.642 91.35C278.95 91.35 277.51 90.756 276.322 89.568C275.134 88.38 274.54 86.94 274.54 85.248C274.54 83.556 275.134 82.116 276.322 80.928ZM277.078 88.812C278.05 89.784 279.22 90.27 280.588 90.27C281.992 90.27 283.18 89.784 284.152 88.812C285.16 87.804 285.664 86.616 285.664 85.248C285.664 83.88 285.16 82.71 284.152 81.738C283.18 80.73 281.992 80.226 280.588 80.226C279.22 80.226 278.05 80.73 277.078 81.738C276.106 82.71 275.62 83.88 275.62 85.248C275.62 86.616 276.106 87.804 277.078 88.812ZM280.804 81.792C281.488 81.792 282.028 81.954 282.424 82.278C282.856 82.602 283.072 83.016 283.072 83.52C283.072 83.988 282.928 84.402 282.64 84.762C282.352 85.086 281.974 85.284 281.506 85.356C281.794 85.392 282.1 85.68 282.424 86.22C282.784 86.76 283.072 87.192 283.288 87.516C283.54 87.84 283.828 88.056 284.152 88.164V88.272H283.504C282.784 88.272 282.28 88.128 281.992 87.84C281.704 87.552 281.506 87.336 281.398 87.192C281.29 87.048 281.146 86.814 280.966 86.49C280.498 85.59 280.192 85.14 280.048 85.14V85.032H280.588C281.308 84.888 281.65 84.402 281.614 83.574C281.614 82.746 281.182 82.332 280.318 82.332L279.67 82.278V87.57C279.67 87.966 279.85 88.164 280.21 88.164H280.372V88.272H277.672V88.164H277.78C278.14 88.164 278.338 87.984 278.374 87.624V82.494C278.338 82.098 278.14 81.9 277.78 81.9H277.672V81.792H279.67H280.804Z" fill="white"/>
<path d="M2.155 81.3H5.4C6.214 81.3 6.93633 81.4613 7.567 81.784C8.19767 82.1067 8.68533 82.5613 9.03 83.148C9.382 83.7273 9.558 84.3947 9.558 85.15C9.558 85.9053 9.382 86.5763 9.03 87.163C8.68533 87.7423 8.19767 88.1933 7.567 88.516C6.93633 88.8387 6.214 89 5.4 89H2.155V81.3ZM5.334 88.043C5.95733 88.043 6.50367 87.922 6.973 87.68C7.44967 87.438 7.81633 87.1007 8.073 86.668C8.32967 86.228 8.458 85.722 8.458 85.15C8.458 84.578 8.32967 84.0757 8.073 83.643C7.81633 83.203 7.44967 82.862 6.973 82.62C6.50367 82.378 5.95733 82.257 5.334 82.257H3.255V88.043H5.334ZM22.7709 88.043V89H17.1829V81.3H22.6169V82.257H18.2829V84.622H22.1439V85.557H18.2829V88.043H22.7709ZM30.492 81.3H31.592V88.043H35.761V89H30.492V81.3ZM42.9633 81.3H44.0633V89H42.9633V81.3ZM58.9214 81.3L55.5444 89H54.4554L51.0674 81.3H52.2554L55.0274 87.625L57.8214 81.3H58.9214ZM71.4313 88.043V89H65.8433V81.3H71.2773V82.257H66.9433V84.622H70.8043V85.557H66.9433V88.043H71.4313ZM84.3004 89L82.6394 86.635C82.4341 86.6497 82.2728 86.657 82.1554 86.657H80.2524V89H79.1524V81.3H82.1554C83.1528 81.3 83.9374 81.5383 84.5094 82.015C85.0814 82.4917 85.3674 83.148 85.3674 83.984C85.3674 84.578 85.2208 85.084 84.9274 85.502C84.6341 85.92 84.2161 86.2243 83.6734 86.415L85.4994 89H84.3004ZM82.1224 85.722C82.8191 85.722 83.3508 85.5717 83.7174 85.271C84.0841 84.9703 84.2674 84.5413 84.2674 83.984C84.2674 83.4267 84.0841 83.0013 83.7174 82.708C83.3508 82.4073 82.8191 82.257 82.1224 82.257H80.2524V85.722H82.1224ZM93.0846 81.3H94.1846V89H93.0846V81.3ZM109.052 81.3V89H108.15L103.53 83.258V89H102.43V81.3H103.332L107.952 87.042V81.3H109.052ZM122.632 85.106H123.688V88.109C123.306 88.4243 122.863 88.6663 122.357 88.835C121.851 89.0037 121.323 89.088 120.773 89.088C119.995 89.088 119.295 88.9193 118.672 88.582C118.048 88.2373 117.557 87.768 117.198 87.174C116.846 86.5727 116.67 85.898 116.67 85.15C116.67 84.402 116.846 83.7273 117.198 83.126C117.557 82.5247 118.048 82.0553 118.672 81.718C119.302 81.3807 120.01 81.212 120.795 81.212C121.411 81.212 121.968 81.3147 122.467 81.52C122.973 81.718 123.402 82.0113 123.754 82.4L123.072 83.082C122.456 82.488 121.711 82.191 120.839 82.191C120.252 82.191 119.724 82.3193 119.255 82.576C118.793 82.8253 118.43 83.1773 118.166 83.632C117.902 84.0793 117.77 84.5853 117.77 85.15C117.77 85.7073 117.902 86.2133 118.166 86.668C118.43 87.1153 118.793 87.4673 119.255 87.724C119.724 87.9807 120.248 88.109 120.828 88.109C121.517 88.109 122.118 87.944 122.632 87.614V85.106ZM140.628 81.3H141.728V88.043H145.897V89H140.628V81.3ZM158.687 88.043V89H153.099V81.3H158.533V82.257H154.199V84.622H158.06V85.557H154.199V88.043H158.687ZM171.314 87.075H167.222L166.375 89H165.242L168.729 81.3H169.818L173.316 89H172.161L171.314 87.075ZM170.929 86.195L169.268 82.422L167.607 86.195H170.929ZM180.405 81.3H183.65C184.464 81.3 185.186 81.4613 185.817 81.784C186.448 82.1067 186.935 82.5613 187.28 83.148C187.632 83.7273 187.808 84.3947 187.808 85.15C187.808 85.9053 187.632 86.5763 187.28 87.163C186.935 87.7423 186.448 88.1933 185.817 88.516C185.186 88.8387 184.464 89 183.65 89H180.405V81.3ZM183.584 88.043C184.207 88.043 184.754 87.922 185.223 87.68C185.7 87.438 186.066 87.1007 186.323 86.668C186.58 86.228 186.708 85.722 186.708 85.15C186.708 84.578 186.58 84.0757 186.323 83.643C186.066 83.203 185.7 82.862 185.223 82.62C184.754 82.378 184.207 82.257 183.584 82.257H181.505V88.043H183.584ZM201.021 88.043V89H195.433V81.3H200.867V82.257H196.533V84.622H200.394V85.557H196.533V88.043H201.021ZM213.89 89L212.229 86.635C212.024 86.6497 211.862 86.657 211.745 86.657H209.842V89H208.742V81.3H211.745C212.742 81.3 213.527 81.5383 214.099 82.015C214.671 82.4917 214.957 83.148 214.957 83.984C214.957 84.578 214.81 85.084 214.517 85.502C214.224 85.92 213.806 86.2243 213.263 86.415L215.089 89H213.89ZM211.712 85.722C212.409 85.722 212.94 85.5717 213.307 85.271C213.674 84.9703 213.857 84.5413 213.857 83.984C213.857 83.4267 213.674 83.0013 213.307 82.708C212.94 82.4073 212.409 82.257 211.712 82.257H209.842V85.722H211.712ZM224.918 89.088C224.339 89.088 223.778 89 223.235 88.824C222.7 88.6407 222.278 88.406 221.97 88.12L222.377 87.262C222.67 87.526 223.044 87.7423 223.499 87.911C223.961 88.0723 224.434 88.153 224.918 88.153C225.556 88.153 226.033 88.0467 226.348 87.834C226.663 87.614 226.821 87.3243 226.821 86.965C226.821 86.701 226.733 86.4883 226.557 86.327C226.388 86.1583 226.176 86.03 225.919 85.942C225.67 85.854 225.314 85.755 224.852 85.645C224.273 85.5057 223.803 85.3663 223.444 85.227C223.092 85.0877 222.788 84.875 222.531 84.589C222.282 84.2957 222.157 83.9033 222.157 83.412C222.157 83.0013 222.263 82.631 222.476 82.301C222.696 81.971 223.026 81.707 223.466 81.509C223.906 81.311 224.452 81.212 225.105 81.212C225.56 81.212 226.007 81.2707 226.447 81.388C226.887 81.5053 227.265 81.674 227.58 81.894L227.217 82.774C226.894 82.5687 226.55 82.4147 226.183 82.312C225.816 82.202 225.457 82.147 225.105 82.147C224.482 82.147 224.012 82.2607 223.697 82.488C223.389 82.7153 223.235 83.0087 223.235 83.368C223.235 83.632 223.323 83.8483 223.499 84.017C223.675 84.1783 223.891 84.3067 224.148 84.402C224.412 84.49 224.768 84.5853 225.215 84.688C225.794 84.8273 226.26 84.9667 226.612 85.106C226.964 85.2453 227.265 85.458 227.514 85.744C227.771 86.03 227.899 86.415 227.899 86.899C227.899 87.3023 227.789 87.6727 227.569 88.01C227.349 88.34 227.015 88.604 226.568 88.802C226.121 88.9927 225.571 89.088 224.918 89.088ZM242.068 81.3V89H240.968V85.568H236.546V89H235.446V81.3H236.546V84.611H240.968V81.3H242.068ZM250.313 81.3H251.413V89H250.313V81.3ZM262.661 81.3C263.658 81.3 264.443 81.5383 265.015 82.015C265.587 82.4917 265.873 83.148 265.873 83.984C265.873 84.82 265.587 85.4763 265.015 85.953C264.443 86.4297 263.658 86.668 262.661 86.668H260.758V89H259.658V81.3H262.661ZM262.628 85.711C263.325 85.711 263.856 85.5643 264.223 85.271C264.59 84.9703 264.773 84.5413 264.773 83.984C264.773 83.4267 264.59 83.0013 264.223 82.708C263.856 82.4073 263.325 82.257 262.628 82.257H260.758V85.711H262.628Z" fill="white"/>
<path d="M9.5458 66.128C8.4258 66.128 7.41247 65.8827 6.5058 65.392C5.6098 64.8907 4.9058 64.208 4.3938 63.344C3.8818 62.4693 3.6258 61.488 3.6258 60.4C3.6258 59.312 3.8818 58.336 4.3938 57.472C4.9058 56.5973 5.61514 55.9147 6.5218 55.424C7.42847 54.9227 8.4418 54.672 9.5618 54.672C10.4365 54.672 11.2365 54.8213 11.9618 55.12C12.6871 55.408 13.3058 55.84 13.8178 56.416L12.7778 57.424C11.9351 56.5387 10.8845 56.096 9.6258 56.096C8.7938 56.096 8.0418 56.2827 7.3698 56.656C6.6978 57.0293 6.1698 57.5467 5.7858 58.208C5.41247 58.8587 5.2258 59.5893 5.2258 60.4C5.2258 61.2107 5.41247 61.9467 5.7858 62.608C6.1698 63.2587 6.6978 63.7707 7.3698 64.144C8.0418 64.5173 8.7938 64.704 9.6258 64.704C10.8738 64.704 11.9245 64.256 12.7778 63.36L13.8178 64.368C13.3058 64.944 12.6818 65.3813 11.9458 65.68C11.2205 65.9787 10.4205 66.128 9.5458 66.128ZM40.1219 66.128C38.9913 66.128 37.9726 65.8827 37.0659 65.392C36.1593 64.8907 35.4446 64.2027 34.9219 63.328C34.4099 62.4533 34.1539 61.4773 34.1539 60.4C34.1539 59.3227 34.4099 58.3467 34.9219 57.472C35.4446 56.5973 36.1593 55.9147 37.0659 55.424C37.9726 54.9227 38.9913 54.672 40.1219 54.672C41.2419 54.672 42.2553 54.9227 43.1619 55.424C44.0686 55.9147 44.7779 56.5973 45.2899 57.472C45.8019 58.336 46.0579 59.312 46.0579 60.4C46.0579 61.488 45.8019 62.4693 45.2899 63.344C44.7779 64.208 44.0686 64.8907 43.1619 65.392C42.2553 65.8827 41.2419 66.128 40.1219 66.128ZM40.1219 64.704C40.9433 64.704 41.6793 64.5173 42.3299 64.144C42.9913 63.7707 43.5086 63.2587 43.8819 62.608C44.2659 61.9467 44.4579 61.2107 44.4579 60.4C44.4579 59.5893 44.2659 58.8587 43.8819 58.208C43.5086 57.5467 42.9913 57.0293 42.3299 56.656C41.6793 56.2827 40.9433 56.096 40.1219 56.096C39.3006 56.096 38.5539 56.2827 37.8819 56.656C37.2206 57.0293 36.6979 57.5467 36.3139 58.208C35.9406 58.8587 35.7539 59.5893 35.7539 60.4C35.7539 61.2107 35.9406 61.9467 36.3139 62.608C36.6979 63.2587 37.2206 63.7707 37.8819 64.144C38.5539 64.5173 39.3006 64.704 40.1219 64.704ZM77.3354 54.8V66H76.0234L69.3034 57.648V66H67.7034V54.8H69.0154L75.7354 63.152V54.8H77.3354ZM103.152 66.128C102.309 66.128 101.493 66 100.704 65.744C99.9251 65.4773 99.3118 65.136 98.8638 64.72L99.4558 63.472C99.8825 63.856 100.426 64.1707 101.088 64.416C101.76 64.6507 102.448 64.768 103.152 64.768C104.08 64.768 104.773 64.6133 105.232 64.304C105.69 63.984 105.92 63.5627 105.92 63.04C105.92 62.656 105.792 62.3467 105.536 62.112C105.29 61.8667 104.981 61.68 104.608 61.552C104.245 61.424 103.728 61.28 103.056 61.12C102.213 60.9173 101.53 60.7147 101.008 60.512C100.496 60.3093 100.053 60 99.6798 59.584C99.3171 59.1573 99.1358 58.5867 99.1358 57.872C99.1358 57.2747 99.2905 56.736 99.5998 56.256C99.9198 55.776 100.4 55.392 101.04 55.104C101.68 54.816 102.474 54.672 103.424 54.672C104.085 54.672 104.736 54.7573 105.376 54.928C106.016 55.0987 106.565 55.344 107.024 55.664L106.496 56.944C106.026 56.6453 105.525 56.4213 104.992 56.272C104.458 56.112 103.936 56.032 103.424 56.032C102.517 56.032 101.834 56.1973 101.376 56.528C100.928 56.8587 100.704 57.2853 100.704 57.808C100.704 58.192 100.832 58.5067 101.088 58.752C101.344 58.9867 101.658 59.1733 102.032 59.312C102.416 59.44 102.933 59.5787 103.584 59.728C104.426 59.9307 105.104 60.1333 105.616 60.336C106.128 60.5387 106.565 60.848 106.928 61.264C107.301 61.68 107.488 62.24 107.488 62.944C107.488 63.5307 107.328 64.0693 107.008 64.56C106.688 65.04 106.202 65.424 105.552 65.712C104.901 65.9893 104.101 66.128 103.152 66.128ZM133.665 66.128C132.172 66.128 131.009 65.7013 130.177 64.848C129.345 63.9947 128.929 62.768 128.929 61.168V54.8H130.529V61.104C130.529 63.504 131.58 64.704 133.681 64.704C134.705 64.704 135.489 64.4107 136.033 63.824C136.577 63.2267 136.849 62.32 136.849 61.104V54.8H138.401V61.168C138.401 62.7787 137.985 64.0107 137.153 64.864C136.321 65.7067 135.159 66.128 133.665 66.128ZM160.882 54.8H162.482V64.608H168.546V66H160.882V54.8ZM190.759 56.192H186.919V54.8H196.183V56.192H192.343V66H190.759V56.192ZM217.125 54.8H218.725V66H217.125V54.8ZM250.91 54.8V66H249.598L242.878 57.648V66H241.278V54.8H242.59L249.31 63.152V54.8H250.91ZM281.223 60.336H282.759V64.704C282.204 65.1627 281.559 65.5147 280.823 65.76C280.087 66.0053 279.319 66.128 278.519 66.128C277.388 66.128 276.37 65.8827 275.463 65.392C274.556 64.8907 273.842 64.208 273.319 63.344C272.807 62.4693 272.551 61.488 272.551 60.4C272.551 59.312 272.807 58.3307 273.319 57.456C273.842 56.5813 274.556 55.8987 275.463 55.408C276.38 54.9173 277.41 54.672 278.551 54.672C279.447 54.672 280.258 54.8213 280.983 55.12C281.719 55.408 282.343 55.8347 282.855 56.4L281.863 57.392C280.967 56.528 279.884 56.096 278.615 56.096C277.762 56.096 276.994 56.2827 276.311 56.656C275.639 57.0187 275.111 57.5307 274.727 58.192C274.343 58.8427 274.151 59.5787 274.151 60.4C274.151 61.2107 274.343 61.9467 274.727 62.608C275.111 63.2587 275.639 63.7707 276.311 64.144C276.994 64.5173 277.756 64.704 278.599 64.704C279.602 64.704 280.476 64.464 281.223 63.984V60.336Z" fill="white"/>
</g>
<defs>
<clipPath id="clip0">
<rect width="292" height="92" fill="white"/>
</clipPath>
</defs>
</svg>
