<svg width="860" height="518" viewBox="0 0 860 518" fill="none" xmlns="http://www.w3.org/2000/svg">
<path fill-rule="evenodd" clip-rule="evenodd" d="M0 518L99.6892 345.333H498.446L598.135 518L0 518Z" fill="#F9C133" fill-opacity="0.89"/>
<path fill-rule="evenodd" clip-rule="evenodd" d="M99.9106 345.334L199.6 172.667H398.978L498.667 345.334H99.9106Z" fill="#E8C927" fill-opacity="0.69"/>
<path fill-rule="evenodd" clip-rule="evenodd" d="M399.671 172.667H200.293L299.982 0L399.671 172.667Z" fill="#F2DF2D" fill-opacity="0.53"/>
<path d="M436.63 98.28C434.18 98.28 431.963 97.7433 429.98 96.67C428.02 95.5733 426.48 94.08 425.36 92.19C424.24 90.2767 423.68 88.13 423.68 85.75C423.68 83.37 424.24 81.235 425.36 79.345C426.48 77.4317 428.032 75.9383 430.015 74.865C431.998 73.7683 434.215 73.22 436.665 73.22C438.578 73.22 440.328 73.5467 441.915 74.2C443.502 74.83 444.855 75.775 445.975 77.035L443.7 79.24C441.857 77.3033 439.558 76.335 436.805 76.335C434.985 76.335 433.34 76.7433 431.87 77.56C430.4 78.3767 429.245 79.5083 428.405 80.955C427.588 82.3783 427.18 83.9767 427.18 85.75C427.18 87.5233 427.588 89.1333 428.405 90.58C429.245 92.0033 430.4 93.1233 431.87 93.94C433.34 94.7567 434.985 95.165 436.805 95.165C439.535 95.165 441.833 94.185 443.7 92.225L445.975 94.43C444.855 95.69 443.49 96.6467 441.88 97.3C440.293 97.9533 438.543 98.28 436.63 98.28ZM449.185 86.94H458.6V89.845H449.185V86.94ZM470.823 98.28C468.979 98.28 467.194 98 465.468 97.44C463.764 96.8567 462.423 96.11 461.443 95.2L462.738 92.47C463.671 93.31 464.861 93.9983 466.308 94.535C467.778 95.0483 469.283 95.305 470.823 95.305C472.853 95.305 474.369 94.9667 475.373 94.29C476.376 93.59 476.878 92.6683 476.878 91.525C476.878 90.685 476.598 90.0083 476.038 89.495C475.501 88.9583 474.824 88.55 474.008 88.27C473.214 87.99 472.083 87.675 470.613 87.325C468.769 86.8817 467.276 86.4383 466.133 85.995C465.013 85.5517 464.044 84.875 463.228 83.965C462.434 83.0317 462.038 81.7833 462.038 80.22C462.038 78.9133 462.376 77.735 463.053 76.685C463.753 75.635 464.803 74.795 466.203 74.165C467.603 73.535 469.341 73.22 471.418 73.22C472.864 73.22 474.288 73.4067 475.688 73.78C477.088 74.1533 478.289 74.69 479.293 75.39L478.138 78.19C477.111 77.5367 476.014 77.0467 474.848 76.72C473.681 76.37 472.538 76.195 471.418 76.195C469.434 76.195 467.941 76.5567 466.938 77.28C465.958 78.0033 465.468 78.9367 465.468 80.08C465.468 80.92 465.748 81.6083 466.308 82.145C466.868 82.6583 467.556 83.0667 468.373 83.37C469.213 83.65 470.344 83.9533 471.768 84.28C473.611 84.7233 475.093 85.1667 476.213 85.61C477.333 86.0533 478.289 86.73 479.083 87.64C479.899 88.55 480.308 89.775 480.308 91.315C480.308 92.5983 479.958 93.7767 479.258 94.85C478.558 95.9 477.496 96.74 476.073 97.37C474.649 97.9767 472.899 98.28 470.823 98.28ZM502.221 79.45V98H499.036V95.2C498.359 96.1567 497.461 96.9033 496.341 97.44C495.244 97.9533 494.043 98.21 492.736 98.21C490.263 98.21 488.314 97.5333 486.891 96.18C485.468 94.8033 484.756 92.785 484.756 90.125V79.45H488.116V89.74C488.116 91.5367 488.548 92.9017 489.411 93.835C490.274 94.745 491.511 95.2 493.121 95.2C494.894 95.2 496.294 94.6633 497.321 93.59C498.348 92.5167 498.861 91 498.861 89.04V79.45H502.221ZM508.618 79.45H511.978V98H508.618V79.45ZM510.298 75.88C509.644 75.88 509.096 75.67 508.653 75.25C508.233 74.83 508.023 74.3167 508.023 73.71C508.023 73.1033 508.233 72.59 508.653 72.17C509.096 71.7267 509.644 71.505 510.298 71.505C510.951 71.505 511.488 71.715 511.908 72.135C512.351 72.5317 512.573 73.0333 512.573 73.64C512.573 74.27 512.351 74.8067 511.908 75.25C511.488 75.67 510.951 75.88 510.298 75.88ZM528.823 96.915C528.333 97.335 527.726 97.6617 527.003 97.895C526.28 98.105 525.533 98.21 524.763 98.21C522.896 98.21 521.45 97.7083 520.423 96.705C519.396 95.7017 518.883 94.2667 518.883 92.4V82.215H515.733V79.45H518.883V75.39H522.243V79.45H527.563V82.215H522.243V92.26C522.243 93.2633 522.488 94.0333 522.978 94.57C523.491 95.1067 524.215 95.375 525.148 95.375C526.175 95.375 527.05 95.0833 527.773 94.5L528.823 96.915ZM549.035 88.83C549.035 89.0867 549.012 89.425 548.965 89.845H533.915C534.125 91.4783 534.837 92.7967 536.05 93.8C537.287 94.78 538.815 95.27 540.635 95.27C542.852 95.27 544.637 94.5233 545.99 93.03L547.845 95.2C547.005 96.18 545.955 96.9267 544.695 97.44C543.458 97.9533 542.07 98.21 540.53 98.21C538.57 98.21 536.832 97.8133 535.315 97.02C533.798 96.2033 532.62 95.0717 531.78 93.625C530.963 92.1783 530.555 90.545 530.555 88.725C530.555 86.9283 530.952 85.3067 531.745 83.86C532.562 82.4133 533.67 81.2933 535.07 80.5C536.493 79.6833 538.092 79.275 539.865 79.275C541.638 79.275 543.213 79.6833 544.59 80.5C545.99 81.2933 547.075 82.4133 547.845 83.86C548.638 85.3067 549.035 86.9633 549.035 88.83ZM539.865 82.11C538.255 82.11 536.902 82.6 535.805 83.58C534.732 84.56 534.102 85.8433 533.915 87.43H545.815C545.628 85.8667 544.987 84.595 543.89 83.615C542.817 82.6117 541.475 82.11 539.865 82.11Z" fill="black"/>
<path d="M534.63 250.28C532.18 250.28 529.963 249.743 527.98 248.67C526.02 247.573 524.48 246.08 523.36 244.19C522.24 242.277 521.68 240.13 521.68 237.75C521.68 235.37 522.24 233.235 523.36 231.345C524.48 229.432 526.032 227.938 528.015 226.865C529.998 225.768 532.215 225.22 534.665 225.22C536.578 225.22 538.328 225.547 539.915 226.2C541.502 226.83 542.855 227.775 543.975 229.035L541.7 231.24C539.857 229.303 537.558 228.335 534.805 228.335C532.985 228.335 531.34 228.743 529.87 229.56C528.4 230.377 527.245 231.508 526.405 232.955C525.588 234.378 525.18 235.977 525.18 237.75C525.18 239.523 525.588 241.133 526.405 242.58C527.245 244.003 528.4 245.123 529.87 245.94C531.34 246.757 532.985 247.165 534.805 247.165C537.535 247.165 539.833 246.185 541.7 244.225L543.975 246.43C542.855 247.69 541.49 248.647 539.88 249.3C538.293 249.953 536.543 250.28 534.63 250.28ZM547.185 238.94H556.6V241.845H547.185V238.94ZM567.249 225.5V250H563.784V228.545H558.254V225.5H567.249ZM591.142 250.28C589.299 250.28 587.514 250 585.787 249.44C584.084 248.857 582.742 248.11 581.762 247.2L583.057 244.47C583.99 245.31 585.18 245.998 586.627 246.535C588.097 247.048 589.602 247.305 591.142 247.305C593.172 247.305 594.689 246.967 595.692 246.29C596.695 245.59 597.197 244.668 597.197 243.525C597.197 242.685 596.917 242.008 596.357 241.495C595.82 240.958 595.144 240.55 594.327 240.27C593.534 239.99 592.402 239.675 590.932 239.325C589.089 238.882 587.595 238.438 586.452 237.995C585.332 237.552 584.364 236.875 583.547 235.965C582.754 235.032 582.357 233.783 582.357 232.22C582.357 230.913 582.695 229.735 583.372 228.685C584.072 227.635 585.122 226.795 586.522 226.165C587.922 225.535 589.66 225.22 591.737 225.22C593.184 225.22 594.607 225.407 596.007 225.78C597.407 226.153 598.609 226.69 599.612 227.39L598.457 230.19C597.43 229.537 596.334 229.047 595.167 228.72C594 228.37 592.857 228.195 591.737 228.195C589.754 228.195 588.26 228.557 587.257 229.28C586.277 230.003 585.787 230.937 585.787 232.08C585.787 232.92 586.067 233.608 586.627 234.145C587.187 234.658 587.875 235.067 588.692 235.37C589.532 235.65 590.664 235.953 592.087 236.28C593.93 236.723 595.412 237.167 596.532 237.61C597.652 238.053 598.609 238.73 599.402 239.64C600.219 240.55 600.627 241.775 600.627 243.315C600.627 244.598 600.277 245.777 599.577 246.85C598.877 247.9 597.815 248.74 596.392 249.37C594.969 249.977 593.219 250.28 591.142 250.28ZM622.015 240.83C622.015 241.087 621.992 241.425 621.945 241.845H606.895C607.105 243.478 607.817 244.797 609.03 245.8C610.267 246.78 611.795 247.27 613.615 247.27C615.832 247.27 617.617 246.523 618.97 245.03L620.825 247.2C619.985 248.18 618.935 248.927 617.675 249.44C616.439 249.953 615.05 250.21 613.51 250.21C611.55 250.21 609.812 249.813 608.295 249.02C606.779 248.203 605.6 247.072 604.76 245.625C603.944 244.178 603.535 242.545 603.535 240.725C603.535 238.928 603.932 237.307 604.725 235.86C605.542 234.413 606.65 233.293 608.05 232.5C609.474 231.683 611.072 231.275 612.845 231.275C614.619 231.275 616.194 231.683 617.57 232.5C618.97 233.293 620.055 234.413 620.825 235.86C621.619 237.307 622.015 238.963 622.015 240.83ZM612.845 234.11C611.235 234.11 609.882 234.6 608.785 235.58C607.712 236.56 607.082 237.843 606.895 239.43H618.795C618.609 237.867 617.967 236.595 616.87 235.615C615.797 234.612 614.455 234.11 612.845 234.11ZM636.586 231.275C638.943 231.275 640.809 231.963 642.186 233.34C643.586 234.693 644.286 236.688 644.286 239.325V250H640.926V239.71C640.926 237.913 640.494 236.56 639.631 235.65C638.768 234.74 637.531 234.285 635.921 234.285C634.101 234.285 632.666 234.822 631.616 235.895C630.566 236.945 630.041 238.462 630.041 240.445V250H626.681V231.45H629.901V234.25C630.578 233.293 631.488 232.558 632.631 232.045C633.798 231.532 635.116 231.275 636.586 231.275ZM650.504 231.45H653.864V250H650.504V231.45ZM652.184 227.88C651.531 227.88 650.983 227.67 650.539 227.25C650.119 226.83 649.909 226.317 649.909 225.71C649.909 225.103 650.119 224.59 650.539 224.17C650.983 223.727 651.531 223.505 652.184 223.505C652.838 223.505 653.374 223.715 653.794 224.135C654.238 224.532 654.459 225.033 654.459 225.64C654.459 226.27 654.238 226.807 653.794 227.25C653.374 227.67 652.838 227.88 652.184 227.88ZM668.225 250.21C666.381 250.21 664.725 249.802 663.255 248.985C661.785 248.168 660.63 247.048 659.79 245.625C658.973 244.178 658.565 242.545 658.565 240.725C658.565 238.905 658.973 237.283 659.79 235.86C660.63 234.413 661.785 233.293 663.255 232.5C664.725 231.683 666.381 231.275 668.225 231.275C670.068 231.275 671.713 231.683 673.16 232.5C674.63 233.293 675.773 234.413 676.59 235.86C677.43 237.283 677.85 238.905 677.85 240.725C677.85 242.545 677.43 244.178 676.59 245.625C675.773 247.048 674.63 248.168 673.16 248.985C671.713 249.802 670.068 250.21 668.225 250.21ZM668.225 247.27C669.415 247.27 670.476 247.002 671.41 246.465C672.366 245.905 673.113 245.135 673.65 244.155C674.186 243.152 674.455 242.008 674.455 240.725C674.455 239.442 674.186 238.31 673.65 237.33C673.113 236.327 672.366 235.557 671.41 235.02C670.476 234.483 669.415 234.215 668.225 234.215C667.035 234.215 665.961 234.483 665.005 235.02C664.071 235.557 663.325 236.327 662.765 237.33C662.228 238.31 661.96 239.442 661.96 240.725C661.96 242.008 662.228 243.152 662.765 244.155C663.325 245.135 664.071 245.905 665.005 246.465C665.961 247.002 667.035 247.27 668.225 247.27ZM685.717 234.565C686.3 233.492 687.163 232.675 688.307 232.115C689.45 231.555 690.838 231.275 692.472 231.275V234.53C692.285 234.507 692.028 234.495 691.702 234.495C689.882 234.495 688.447 235.043 687.397 236.14C686.37 237.213 685.857 238.753 685.857 240.76V250H682.497V231.45H685.717V234.565ZM546.39 293L546.355 275.15L537.5 290.025H535.89L527.035 275.255V293H523.675V268.5H526.545L536.765 285.72L546.845 268.5H549.715L549.75 293H546.39ZM563.368 274.275C565.934 274.275 567.894 274.905 569.248 276.165C570.624 277.425 571.313 279.303 571.313 281.8V293H568.128V290.55C567.568 291.413 566.763 292.078 565.713 292.545C564.686 292.988 563.461 293.21 562.038 293.21C559.961 293.21 558.293 292.708 557.033 291.705C555.796 290.702 555.178 289.383 555.178 287.75C555.178 286.117 555.773 284.81 556.963 283.83C558.153 282.827 560.043 282.325 562.633 282.325H567.953V281.66C567.953 280.213 567.533 279.105 566.693 278.335C565.853 277.565 564.616 277.18 562.983 277.18C561.886 277.18 560.813 277.367 559.763 277.74C558.713 278.09 557.826 278.568 557.103 279.175L555.703 276.655C556.659 275.885 557.803 275.302 559.133 274.905C560.463 274.485 561.874 274.275 563.368 274.275ZM562.598 290.62C563.881 290.62 564.989 290.34 565.923 289.78C566.856 289.197 567.533 288.38 567.953 287.33V284.74H562.773C559.926 284.74 558.503 285.697 558.503 287.61C558.503 288.543 558.864 289.278 559.588 289.815C560.311 290.352 561.314 290.62 562.598 290.62ZM587.436 274.275C589.792 274.275 591.659 274.963 593.036 276.34C594.436 277.693 595.136 279.688 595.136 282.325V293H591.776V282.71C591.776 280.913 591.344 279.56 590.481 278.65C589.617 277.74 588.381 277.285 586.771 277.285C584.951 277.285 583.516 277.822 582.466 278.895C581.416 279.945 580.891 281.462 580.891 283.445V293H577.531V274.45H580.751V277.25C581.427 276.293 582.337 275.558 583.481 275.045C584.647 274.532 585.966 274.275 587.436 274.275ZM608.109 274.275C610.676 274.275 612.636 274.905 613.989 276.165C615.366 277.425 616.054 279.303 616.054 281.8V293H612.869V290.55C612.309 291.413 611.504 292.078 610.454 292.545C609.427 292.988 608.202 293.21 606.779 293.21C604.702 293.21 603.034 292.708 601.774 291.705C600.537 290.702 599.919 289.383 599.919 287.75C599.919 286.117 600.514 284.81 601.704 283.83C602.894 282.827 604.784 282.325 607.374 282.325H612.694V281.66C612.694 280.213 612.274 279.105 611.434 278.335C610.594 277.565 609.357 277.18 607.724 277.18C606.627 277.18 605.554 277.367 604.504 277.74C603.454 278.09 602.567 278.568 601.844 279.175L600.444 276.655C601.401 275.885 602.544 275.302 603.874 274.905C605.204 274.485 606.616 274.275 608.109 274.275ZM607.339 290.62C608.622 290.62 609.731 290.34 610.664 289.78C611.597 289.197 612.274 288.38 612.694 287.33V284.74H607.514C604.667 284.74 603.244 285.697 603.244 287.61C603.244 288.543 603.606 289.278 604.329 289.815C605.052 290.352 606.056 290.62 607.339 290.62ZM640.119 274.45V290.48C640.119 293.723 639.314 296.115 637.704 297.655C636.094 299.218 633.691 300 630.494 300C628.744 300 627.076 299.755 625.489 299.265C623.903 298.798 622.619 298.122 621.639 297.235L623.249 294.645C624.113 295.392 625.174 295.975 626.434 296.395C627.718 296.838 629.036 297.06 630.389 297.06C632.559 297.06 634.158 296.547 635.184 295.52C636.234 294.493 636.759 292.93 636.759 290.83V289.36C635.966 290.317 634.986 291.04 633.819 291.53C632.676 291.997 631.428 292.23 630.074 292.23C628.301 292.23 626.691 291.857 625.244 291.11C623.821 290.34 622.701 289.278 621.884 287.925C621.068 286.548 620.659 284.985 620.659 283.235C620.659 281.485 621.068 279.933 621.884 278.58C622.701 277.203 623.821 276.142 625.244 275.395C626.691 274.648 628.301 274.275 630.074 274.275C631.474 274.275 632.769 274.532 633.959 275.045C635.173 275.558 636.164 276.317 636.934 277.32V274.45H640.119ZM630.459 289.29C631.673 289.29 632.758 289.033 633.714 288.52C634.694 288.007 635.453 287.295 635.989 286.385C636.549 285.452 636.829 284.402 636.829 283.235C636.829 281.438 636.234 279.992 635.044 278.895C633.854 277.775 632.326 277.215 630.459 277.215C628.569 277.215 627.029 277.775 625.839 278.895C624.649 279.992 624.054 281.438 624.054 283.235C624.054 284.402 624.323 285.452 624.859 286.385C625.419 287.295 626.178 288.007 627.134 288.52C628.114 289.033 629.223 289.29 630.459 289.29ZM663.304 283.83C663.304 284.087 663.281 284.425 663.234 284.845H648.184C648.394 286.478 649.106 287.797 650.319 288.8C651.556 289.78 653.084 290.27 654.904 290.27C657.121 290.27 658.906 289.523 660.259 288.03L662.114 290.2C661.274 291.18 660.224 291.927 658.964 292.44C657.728 292.953 656.339 293.21 654.799 293.21C652.839 293.21 651.101 292.813 649.584 292.02C648.068 291.203 646.889 290.072 646.049 288.625C645.233 287.178 644.824 285.545 644.824 283.725C644.824 281.928 645.221 280.307 646.014 278.86C646.831 277.413 647.939 276.293 649.339 275.5C650.763 274.683 652.361 274.275 654.134 274.275C655.908 274.275 657.483 274.683 658.859 275.5C660.259 276.293 661.344 277.413 662.114 278.86C662.908 280.307 663.304 281.963 663.304 283.83ZM654.134 277.11C652.524 277.11 651.171 277.6 650.074 278.58C649.001 279.56 648.371 280.843 648.184 282.43H660.084C659.898 280.867 659.256 279.595 658.159 278.615C657.086 277.612 655.744 277.11 654.134 277.11ZM691.175 274.275C693.508 274.275 695.352 274.952 696.705 276.305C698.082 277.658 698.77 279.665 698.77 282.325V293H695.41V282.71C695.41 280.913 694.99 279.56 694.15 278.65C693.333 277.74 692.155 277.285 690.615 277.285C688.912 277.285 687.558 277.822 686.555 278.895C685.552 279.945 685.05 281.462 685.05 283.445V293H681.69V282.71C681.69 280.913 681.27 279.56 680.43 278.65C679.613 277.74 678.435 277.285 676.895 277.285C675.192 277.285 673.838 277.822 672.835 278.895C671.832 279.945 671.33 281.462 671.33 283.445V293H667.97V274.45H671.19V277.215C671.867 276.258 672.753 275.535 673.85 275.045C674.947 274.532 676.195 274.275 677.595 274.275C679.042 274.275 680.325 274.567 681.445 275.15C682.565 275.733 683.428 276.585 684.035 277.705C684.735 276.632 685.703 275.792 686.94 275.185C688.2 274.578 689.612 274.275 691.175 274.275ZM721.82 283.83C721.82 284.087 721.797 284.425 721.75 284.845H706.7C706.91 286.478 707.622 287.797 708.835 288.8C710.072 289.78 711.6 290.27 713.42 290.27C715.637 290.27 717.422 289.523 718.775 288.03L720.63 290.2C719.79 291.18 718.74 291.927 717.48 292.44C716.243 292.953 714.855 293.21 713.315 293.21C711.355 293.21 709.617 292.813 708.1 292.02C706.583 291.203 705.405 290.072 704.565 288.625C703.748 287.178 703.34 285.545 703.34 283.725C703.34 281.928 703.737 280.307 704.53 278.86C705.347 277.413 706.455 276.293 707.855 275.5C709.278 274.683 710.877 274.275 712.65 274.275C714.423 274.275 715.998 274.683 717.375 275.5C718.775 276.293 719.86 277.413 720.63 278.86C721.423 280.307 721.82 281.963 721.82 283.83ZM712.65 277.11C711.04 277.11 709.687 277.6 708.59 278.58C707.517 279.56 706.887 280.843 706.7 282.43H718.6C718.413 280.867 717.772 279.595 716.675 278.615C715.602 277.612 714.26 277.11 712.65 277.11ZM736.391 274.275C738.747 274.275 740.614 274.963 741.991 276.34C743.391 277.693 744.091 279.688 744.091 282.325V293H740.731V282.71C740.731 280.913 740.299 279.56 739.436 278.65C738.572 277.74 737.336 277.285 735.726 277.285C733.906 277.285 732.471 277.822 731.421 278.895C730.371 279.945 729.846 281.462 729.846 283.445V293H726.486V274.45H729.706V277.25C730.382 276.293 731.292 275.558 732.436 275.045C733.602 274.532 734.921 274.275 736.391 274.275ZM760.739 291.915C760.249 292.335 759.642 292.662 758.919 292.895C758.196 293.105 757.449 293.21 756.679 293.21C754.812 293.21 753.366 292.708 752.339 291.705C751.312 290.702 750.799 289.267 750.799 287.4V277.215H747.649V274.45H750.799V270.39H754.159V274.45H759.479V277.215H754.159V287.26C754.159 288.263 754.404 289.033 754.894 289.57C755.407 290.107 756.131 290.375 757.064 290.375C758.091 290.375 758.966 290.083 759.689 289.5L760.739 291.915Z" fill="black"/>
<path d="M629.63 423.28C627.18 423.28 624.963 422.743 622.98 421.67C621.02 420.573 619.48 419.08 618.36 417.19C617.24 415.277 616.68 413.13 616.68 410.75C616.68 408.37 617.24 406.235 618.36 404.345C619.48 402.432 621.032 400.938 623.015 399.865C624.998 398.768 627.215 398.22 629.665 398.22C631.578 398.22 633.328 398.547 634.915 399.2C636.502 399.83 637.855 400.775 638.975 402.035L636.7 404.24C634.857 402.303 632.558 401.335 629.805 401.335C627.985 401.335 626.34 401.743 624.87 402.56C623.4 403.377 622.245 404.508 621.405 405.955C620.588 407.378 620.18 408.977 620.18 410.75C620.18 412.523 620.588 414.133 621.405 415.58C622.245 417.003 623.4 418.123 624.87 418.94C626.34 419.757 627.985 420.165 629.805 420.165C632.535 420.165 634.833 419.185 636.7 417.225L638.975 419.43C637.855 420.69 636.49 421.647 634.88 422.3C633.293 422.953 631.543 423.28 629.63 423.28ZM642.185 411.94H651.6V414.845H642.185V411.94ZM672.045 419.955V423H654.44V420.62L664.415 410.995C665.628 409.828 666.445 408.825 666.865 407.985C667.285 407.122 667.495 406.258 667.495 405.395C667.495 404.112 667.04 403.12 666.13 402.42C665.243 401.697 663.96 401.335 662.28 401.335C659.573 401.335 657.485 402.222 656.015 403.995L653.635 401.93C654.591 400.763 655.84 399.853 657.38 399.2C658.943 398.547 660.681 398.22 662.595 398.22C665.161 398.22 667.203 398.838 668.72 400.075C670.236 401.288 670.995 402.945 670.995 405.045C670.995 406.352 670.715 407.588 670.155 408.755C669.595 409.922 668.533 411.252 666.97 412.745L659.48 419.955H672.045ZM709.032 423L708.997 405.15L700.142 420.025H698.532L689.677 405.255V423H686.317V398.5H689.187L699.407 415.72L709.487 398.5H712.357L712.392 423H709.032ZM719.254 404.45H722.614V423H719.254V404.45ZM720.934 400.88C720.281 400.88 719.733 400.67 719.289 400.25C718.869 399.83 718.659 399.317 718.659 398.71C718.659 398.103 718.869 397.59 719.289 397.17C719.733 396.727 720.281 396.505 720.934 396.505C721.588 396.505 722.124 396.715 722.544 397.135C722.988 397.532 723.209 398.033 723.209 398.64C723.209 399.27 722.988 399.807 722.544 400.25C722.124 400.67 721.588 400.88 720.934 400.88ZM746.53 397.03V423H743.31V420.06C742.563 421.087 741.618 421.868 740.475 422.405C739.331 422.942 738.071 423.21 736.695 423.21C734.898 423.21 733.288 422.813 731.865 422.02C730.441 421.227 729.321 420.118 728.505 418.695C727.711 417.248 727.315 415.592 727.315 413.725C727.315 411.858 727.711 410.213 728.505 408.79C729.321 407.367 730.441 406.258 731.865 405.465C733.288 404.672 734.898 404.275 736.695 404.275C738.025 404.275 739.25 404.532 740.37 405.045C741.49 405.535 742.423 406.27 743.17 407.25V397.03H746.53ZM736.975 420.27C738.141 420.27 739.203 420.002 740.16 419.465C741.116 418.905 741.863 418.135 742.4 417.155C742.936 416.152 743.205 415.008 743.205 413.725C743.205 412.442 742.936 411.31 742.4 410.33C741.863 409.327 741.116 408.557 740.16 408.02C739.203 407.483 738.141 407.215 736.975 407.215C735.785 407.215 734.711 407.483 733.755 408.02C732.821 408.557 732.075 409.327 731.515 410.33C730.978 411.31 730.71 412.442 730.71 413.725C730.71 415.008 730.978 416.152 731.515 417.155C732.075 418.135 732.821 418.905 733.755 419.465C734.711 420.002 735.785 420.27 736.975 420.27ZM770.387 397.03V423H767.167V420.06C766.42 421.087 765.475 421.868 764.332 422.405C763.189 422.942 761.929 423.21 760.552 423.21C758.755 423.21 757.145 422.813 755.722 422.02C754.299 421.227 753.179 420.118 752.362 418.695C751.569 417.248 751.172 415.592 751.172 413.725C751.172 411.858 751.569 410.213 752.362 408.79C753.179 407.367 754.299 406.258 755.722 405.465C757.145 404.672 758.755 404.275 760.552 404.275C761.882 404.275 763.107 404.532 764.227 405.045C765.347 405.535 766.28 406.27 767.027 407.25V397.03H770.387ZM760.832 420.27C761.999 420.27 763.06 420.002 764.017 419.465C764.974 418.905 765.72 418.135 766.257 417.155C766.794 416.152 767.062 415.008 767.062 413.725C767.062 412.442 766.794 411.31 766.257 410.33C765.72 409.327 764.974 408.557 764.017 408.02C763.06 407.483 761.999 407.215 760.832 407.215C759.642 407.215 758.569 407.483 757.612 408.02C756.679 408.557 755.932 409.327 755.372 410.33C754.835 411.31 754.567 412.442 754.567 413.725C754.567 415.008 754.835 416.152 755.372 417.155C755.932 418.135 756.679 418.905 757.612 419.465C758.569 420.002 759.642 420.27 760.832 420.27ZM776.745 397.03H780.105V423H776.745V397.03ZM803.285 413.83C803.285 414.087 803.262 414.425 803.215 414.845H788.165C788.375 416.478 789.087 417.797 790.3 418.8C791.537 419.78 793.065 420.27 794.885 420.27C797.102 420.27 798.887 419.523 800.24 418.03L802.095 420.2C801.255 421.18 800.205 421.927 798.945 422.44C797.708 422.953 796.32 423.21 794.78 423.21C792.82 423.21 791.082 422.813 789.565 422.02C788.048 421.203 786.87 420.072 786.03 418.625C785.213 417.178 784.805 415.545 784.805 413.725C784.805 411.928 785.202 410.307 785.995 408.86C786.812 407.413 787.92 406.293 789.32 405.5C790.743 404.683 792.342 404.275 794.115 404.275C795.888 404.275 797.463 404.683 798.84 405.5C800.24 406.293 801.325 407.413 802.095 408.86C802.888 410.307 803.285 411.963 803.285 413.83ZM794.115 407.11C792.505 407.11 791.152 407.6 790.055 408.58C788.982 409.56 788.352 410.843 788.165 412.43H800.065C799.878 410.867 799.237 409.595 798.14 408.615C797.067 407.612 795.725 407.11 794.115 407.11ZM641.39 466L641.355 448.15L632.5 463.025H630.89L622.035 448.255V466H618.675V441.5H621.545L631.765 458.72L641.845 441.5H644.715L644.75 466H641.39ZM658.368 447.275C660.934 447.275 662.894 447.905 664.248 449.165C665.624 450.425 666.313 452.303 666.313 454.8V466H663.128V463.55C662.568 464.413 661.763 465.078 660.713 465.545C659.686 465.988 658.461 466.21 657.038 466.21C654.961 466.21 653.293 465.708 652.033 464.705C650.796 463.702 650.178 462.383 650.178 460.75C650.178 459.117 650.773 457.81 651.963 456.83C653.153 455.827 655.043 455.325 657.633 455.325H662.953V454.66C662.953 453.213 662.533 452.105 661.693 451.335C660.853 450.565 659.616 450.18 657.983 450.18C656.886 450.18 655.813 450.367 654.763 450.74C653.713 451.09 652.826 451.568 652.103 452.175L650.703 449.655C651.659 448.885 652.803 448.302 654.133 447.905C655.463 447.485 656.874 447.275 658.368 447.275ZM657.598 463.62C658.881 463.62 659.989 463.34 660.923 462.78C661.856 462.197 662.533 461.38 662.953 460.33V457.74H657.773C654.926 457.74 653.503 458.697 653.503 460.61C653.503 461.543 653.864 462.278 654.588 462.815C655.311 463.352 656.314 463.62 657.598 463.62ZM682.436 447.275C684.792 447.275 686.659 447.963 688.036 449.34C689.436 450.693 690.136 452.688 690.136 455.325V466H686.776V455.71C686.776 453.913 686.344 452.56 685.481 451.65C684.617 450.74 683.381 450.285 681.771 450.285C679.951 450.285 678.516 450.822 677.466 451.895C676.416 452.945 675.891 454.462 675.891 456.445V466H672.531V447.45H675.751V450.25C676.427 449.293 677.337 448.558 678.481 448.045C679.647 447.532 680.966 447.275 682.436 447.275ZM703.109 447.275C705.676 447.275 707.636 447.905 708.989 449.165C710.366 450.425 711.054 452.303 711.054 454.8V466H707.869V463.55C707.309 464.413 706.504 465.078 705.454 465.545C704.427 465.988 703.202 466.21 701.779 466.21C699.702 466.21 698.034 465.708 696.774 464.705C695.537 463.702 694.919 462.383 694.919 460.75C694.919 459.117 695.514 457.81 696.704 456.83C697.894 455.827 699.784 455.325 702.374 455.325H707.694V454.66C707.694 453.213 707.274 452.105 706.434 451.335C705.594 450.565 704.357 450.18 702.724 450.18C701.627 450.18 700.554 450.367 699.504 450.74C698.454 451.09 697.567 451.568 696.844 452.175L695.444 449.655C696.401 448.885 697.544 448.302 698.874 447.905C700.204 447.485 701.616 447.275 703.109 447.275ZM702.339 463.62C703.622 463.62 704.731 463.34 705.664 462.78C706.597 462.197 707.274 461.38 707.694 460.33V457.74H702.514C699.667 457.74 698.244 458.697 698.244 460.61C698.244 461.543 698.606 462.278 699.329 462.815C700.052 463.352 701.056 463.62 702.339 463.62ZM735.119 447.45V463.48C735.119 466.723 734.314 469.115 732.704 470.655C731.094 472.218 728.691 473 725.494 473C723.744 473 722.076 472.755 720.489 472.265C718.903 471.798 717.619 471.122 716.639 470.235L718.249 467.645C719.113 468.392 720.174 468.975 721.434 469.395C722.718 469.838 724.036 470.06 725.389 470.06C727.559 470.06 729.158 469.547 730.184 468.52C731.234 467.493 731.759 465.93 731.759 463.83V462.36C730.966 463.317 729.986 464.04 728.819 464.53C727.676 464.997 726.428 465.23 725.074 465.23C723.301 465.23 721.691 464.857 720.244 464.11C718.821 463.34 717.701 462.278 716.884 460.925C716.068 459.548 715.659 457.985 715.659 456.235C715.659 454.485 716.068 452.933 716.884 451.58C717.701 450.203 718.821 449.142 720.244 448.395C721.691 447.648 723.301 447.275 725.074 447.275C726.474 447.275 727.769 447.532 728.959 448.045C730.173 448.558 731.164 449.317 731.934 450.32V447.45H735.119ZM725.459 462.29C726.673 462.29 727.758 462.033 728.714 461.52C729.694 461.007 730.453 460.295 730.989 459.385C731.549 458.452 731.829 457.402 731.829 456.235C731.829 454.438 731.234 452.992 730.044 451.895C728.854 450.775 727.326 450.215 725.459 450.215C723.569 450.215 722.029 450.775 720.839 451.895C719.649 452.992 719.054 454.438 719.054 456.235C719.054 457.402 719.323 458.452 719.859 459.385C720.419 460.295 721.178 461.007 722.134 461.52C723.114 462.033 724.223 462.29 725.459 462.29ZM758.304 456.83C758.304 457.087 758.281 457.425 758.234 457.845H743.184C743.394 459.478 744.106 460.797 745.319 461.8C746.556 462.78 748.084 463.27 749.904 463.27C752.121 463.27 753.906 462.523 755.259 461.03L757.114 463.2C756.274 464.18 755.224 464.927 753.964 465.44C752.728 465.953 751.339 466.21 749.799 466.21C747.839 466.21 746.101 465.813 744.584 465.02C743.068 464.203 741.889 463.072 741.049 461.625C740.233 460.178 739.824 458.545 739.824 456.725C739.824 454.928 740.221 453.307 741.014 451.86C741.831 450.413 742.939 449.293 744.339 448.5C745.763 447.683 747.361 447.275 749.134 447.275C750.908 447.275 752.483 447.683 753.859 448.5C755.259 449.293 756.344 450.413 757.114 451.86C757.908 453.307 758.304 454.963 758.304 456.83ZM749.134 450.11C747.524 450.11 746.171 450.6 745.074 451.58C744.001 452.56 743.371 453.843 743.184 455.43H755.084C754.898 453.867 754.256 452.595 753.159 451.615C752.086 450.612 750.744 450.11 749.134 450.11ZM786.175 447.275C788.508 447.275 790.352 447.952 791.705 449.305C793.082 450.658 793.77 452.665 793.77 455.325V466H790.41V455.71C790.41 453.913 789.99 452.56 789.15 451.65C788.333 450.74 787.155 450.285 785.615 450.285C783.912 450.285 782.558 450.822 781.555 451.895C780.552 452.945 780.05 454.462 780.05 456.445V466H776.69V455.71C776.69 453.913 776.27 452.56 775.43 451.65C774.613 450.74 773.435 450.285 771.895 450.285C770.192 450.285 768.838 450.822 767.835 451.895C766.832 452.945 766.33 454.462 766.33 456.445V466H762.97V447.45H766.19V450.215C766.867 449.258 767.753 448.535 768.85 448.045C769.947 447.532 771.195 447.275 772.595 447.275C774.042 447.275 775.325 447.567 776.445 448.15C777.565 448.733 778.428 449.585 779.035 450.705C779.735 449.632 780.703 448.792 781.94 448.185C783.2 447.578 784.612 447.275 786.175 447.275ZM816.82 456.83C816.82 457.087 816.797 457.425 816.75 457.845H801.7C801.91 459.478 802.622 460.797 803.835 461.8C805.072 462.78 806.6 463.27 808.42 463.27C810.637 463.27 812.422 462.523 813.775 461.03L815.63 463.2C814.79 464.18 813.74 464.927 812.48 465.44C811.243 465.953 809.855 466.21 808.315 466.21C806.355 466.21 804.617 465.813 803.1 465.02C801.583 464.203 800.405 463.072 799.565 461.625C798.748 460.178 798.34 458.545 798.34 456.725C798.34 454.928 798.737 453.307 799.53 451.86C800.347 450.413 801.455 449.293 802.855 448.5C804.278 447.683 805.877 447.275 807.65 447.275C809.423 447.275 810.998 447.683 812.375 448.5C813.775 449.293 814.86 450.413 815.63 451.86C816.423 453.307 816.82 454.963 816.82 456.83ZM807.65 450.11C806.04 450.11 804.687 450.6 803.59 451.58C802.517 452.56 801.887 453.843 801.7 455.43H813.6C813.413 453.867 812.772 452.595 811.675 451.615C810.602 450.612 809.26 450.11 807.65 450.11ZM831.391 447.275C833.747 447.275 835.614 447.963 836.991 449.34C838.391 450.693 839.091 452.688 839.091 455.325V466H835.731V455.71C835.731 453.913 835.299 452.56 834.436 451.65C833.572 450.74 832.336 450.285 830.726 450.285C828.906 450.285 827.471 450.822 826.421 451.895C825.371 452.945 824.846 454.462 824.846 456.445V466H821.486V447.45H824.706V450.25C825.382 449.293 826.292 448.558 827.436 448.045C828.602 447.532 829.921 447.275 831.391 447.275ZM855.739 464.915C855.249 465.335 854.642 465.662 853.919 465.895C853.196 466.105 852.449 466.21 851.679 466.21C849.812 466.21 848.366 465.708 847.339 464.705C846.312 463.702 845.799 462.267 845.799 460.4V450.215H842.649V447.45H845.799V443.39H849.159V447.45H854.479V450.215H849.159V460.26C849.159 461.263 849.404 462.033 849.894 462.57C850.407 463.107 851.131 463.375 852.064 463.375C853.091 463.375 853.966 463.083 854.689 462.5L855.739 464.915Z" fill="black"/>
<line x1="350" y1="85.5" x2="410" y2="85.5" stroke="black"/>
<line x1="447" y1="258.5" x2="507" y2="258.5" stroke="black"/>
<line x1="548" y1="431.5" x2="608" y2="431.5" stroke="black"/>
</svg>
