<svg width="962" height="518" viewBox="0 0 962 518" fill="none" xmlns="http://www.w3.org/2000/svg">
<path fill-rule="evenodd" clip-rule="evenodd" d="M0 518L99.6891 345.333H498.446L598.135 518L0 518Z" fill="#F9C133" fill-opacity="0.89"/>
<path fill-rule="evenodd" clip-rule="evenodd" d="M99.9106 345.334L199.6 172.667H398.978L498.667 345.334H99.9106Z" fill="#E8C927" fill-opacity="0.69"/>
<path fill-rule="evenodd" clip-rule="evenodd" d="M399.671 172.667H200.293L299.982 0L399.671 172.667Z" fill="#F2DF2D" fill-opacity="0.53"/>
<path d="M432.45 95.2C430.7 95.2 429.117 94.8167 427.7 94.05C426.3 93.2667 425.2 92.2 424.4 90.85C423.6 89.4833 423.2 87.95 423.2 86.25C423.2 84.55 423.6 83.025 424.4 81.675C425.2 80.3083 426.308 79.2417 427.725 78.475C429.142 77.6917 430.725 77.3 432.475 77.3C433.842 77.3 435.092 77.5333 436.225 78C437.358 78.45 438.325 79.125 439.125 80.025L437.5 81.6C436.183 80.2167 434.542 79.525 432.575 79.525C431.275 79.525 430.1 79.8167 429.05 80.4C428 80.9833 427.175 81.7917 426.575 82.825C425.992 83.8417 425.7 84.9833 425.7 86.25C425.7 87.5167 425.992 88.6667 426.575 89.7C427.175 90.7167 428 91.5167 429.05 92.1C430.1 92.6833 431.275 92.975 432.575 92.975C434.525 92.975 436.167 92.275 437.5 90.875L439.125 92.45C438.325 93.35 437.35 94.0333 436.2 94.5C435.067 94.9667 433.817 95.2 432.45 95.2ZM441.418 87.1H448.143V89.175H441.418V87.1ZM456.873 95.2C455.557 95.2 454.282 95 453.048 94.6C451.832 94.1833 450.873 93.65 450.173 93L451.098 91.05C451.765 91.65 452.615 92.1417 453.648 92.525C454.698 92.8917 455.773 93.075 456.873 93.075C458.323 93.075 459.407 92.8333 460.123 92.35C460.84 91.85 461.198 91.1917 461.198 90.375C461.198 89.775 460.998 89.2917 460.598 88.925C460.215 88.5417 459.732 88.25 459.148 88.05C458.582 87.85 457.773 87.625 456.723 87.375C455.407 87.0583 454.34 86.7417 453.523 86.425C452.723 86.1083 452.032 85.625 451.448 84.975C450.882 84.3083 450.598 83.4167 450.598 82.3C450.598 81.3667 450.84 80.525 451.323 79.775C451.823 79.025 452.573 78.425 453.573 77.975C454.573 77.525 455.815 77.3 457.298 77.3C458.332 77.3 459.348 77.4333 460.348 77.7C461.348 77.9667 462.207 78.35 462.923 78.85L462.098 80.85C461.365 80.3833 460.582 80.0333 459.748 79.8C458.915 79.55 458.098 79.425 457.298 79.425C455.882 79.425 454.815 79.6833 454.098 80.2C453.398 80.7167 453.048 81.3833 453.048 82.2C453.048 82.8 453.248 83.2917 453.648 83.675C454.048 84.0417 454.54 84.3333 455.123 84.55C455.723 84.75 456.532 84.9667 457.548 85.2C458.865 85.5167 459.923 85.8333 460.723 86.15C461.523 86.4667 462.207 86.95 462.773 87.6C463.357 88.25 463.648 89.125 463.648 90.225C463.648 91.1417 463.398 91.9833 462.898 92.75C462.398 93.5 461.64 94.1 460.623 94.55C459.607 94.9833 458.357 95.2 456.873 95.2ZM479.301 81.75V95H477.026V93C476.542 93.6833 475.901 94.2167 475.101 94.6C474.317 94.9667 473.459 95.15 472.526 95.15C470.759 95.15 469.367 94.6667 468.351 93.7C467.334 92.7167 466.826 91.275 466.826 89.375V81.75H469.226V89.1C469.226 90.3833 469.534 91.3583 470.151 92.025C470.767 92.675 471.651 93 472.801 93C474.067 93 475.067 92.6167 475.801 91.85C476.534 91.0833 476.901 90 476.901 88.6V81.75H479.301ZM483.87 81.75H486.27V95H483.87V81.75ZM485.07 79.2C484.603 79.2 484.211 79.05 483.895 78.75C483.595 78.45 483.445 78.0833 483.445 77.65C483.445 77.2167 483.595 76.85 483.895 76.55C484.211 76.2333 484.603 76.075 485.07 76.075C485.536 76.075 485.92 76.225 486.22 76.525C486.536 76.8083 486.695 77.1667 486.695 77.6C486.695 78.05 486.536 78.4333 486.22 78.75C485.92 79.05 485.536 79.2 485.07 79.2ZM498.302 94.225C497.952 94.525 497.519 94.7583 497.002 94.925C496.485 95.075 495.952 95.15 495.402 95.15C494.069 95.15 493.035 94.7917 492.302 94.075C491.569 93.3583 491.202 92.3333 491.202 91V83.725H488.952V81.75H491.202V78.85H493.602V81.75H497.402V83.725H493.602V90.9C493.602 91.6167 493.777 92.1667 494.127 92.55C494.494 92.9333 495.01 93.125 495.677 93.125C496.41 93.125 497.035 92.9167 497.552 92.5L498.302 94.225ZM512.739 88.45C512.739 88.6333 512.723 88.875 512.689 89.175H501.939C502.089 90.3417 502.598 91.2833 503.464 92C504.348 92.7 505.439 93.05 506.739 93.05C508.323 93.05 509.598 92.5167 510.564 91.45L511.889 93C511.289 93.7 510.539 94.2333 509.639 94.6C508.756 94.9667 507.764 95.15 506.664 95.15C505.264 95.15 504.023 94.8667 502.939 94.3C501.856 93.7167 501.014 92.9083 500.414 91.875C499.831 90.8417 499.539 89.675 499.539 88.375C499.539 87.0917 499.823 85.9333 500.389 84.9C500.973 83.8667 501.764 83.0667 502.764 82.5C503.781 81.9167 504.923 81.625 506.189 81.625C507.456 81.625 508.581 81.9167 509.564 82.5C510.564 83.0667 511.339 83.8667 511.889 84.9C512.456 85.9333 512.739 87.1167 512.739 88.45ZM506.189 83.65C505.039 83.65 504.073 84 503.289 84.7C502.523 85.4 502.073 86.3167 501.939 87.45H510.439C510.306 86.3333 509.848 85.425 509.064 84.725C508.298 84.0083 507.339 83.65 506.189 83.65Z" fill="black"/>
<path d="M525.725 267.2C524.408 267.2 523.133 267 521.9 266.6C520.683 266.183 519.725 265.65 519.025 265L519.95 263.05C520.617 263.65 521.467 264.142 522.5 264.525C523.55 264.892 524.625 265.075 525.725 265.075C527.175 265.075 528.258 264.833 528.975 264.35C529.692 263.85 530.05 263.192 530.05 262.375C530.05 261.775 529.85 261.292 529.45 260.925C529.067 260.542 528.583 260.25 528 260.05C527.433 259.85 526.625 259.625 525.575 259.375C524.258 259.058 523.192 258.742 522.375 258.425C521.575 258.108 520.883 257.625 520.3 256.975C519.733 256.308 519.45 255.417 519.45 254.3C519.45 253.367 519.692 252.525 520.175 251.775C520.675 251.025 521.425 250.425 522.425 249.975C523.425 249.525 524.667 249.3 526.15 249.3C527.183 249.3 528.2 249.433 529.2 249.7C530.2 249.967 531.058 250.35 531.775 250.85L530.95 252.85C530.217 252.383 529.433 252.033 528.6 251.8C527.767 251.55 526.95 251.425 526.15 251.425C524.733 251.425 523.667 251.683 522.95 252.2C522.25 252.717 521.9 253.383 521.9 254.2C521.9 254.8 522.1 255.292 522.5 255.675C522.9 256.042 523.392 256.333 523.975 256.55C524.575 256.75 525.383 256.967 526.4 257.2C527.717 257.517 528.775 257.833 529.575 258.15C530.375 258.467 531.058 258.95 531.625 259.6C532.208 260.25 532.5 261.125 532.5 262.225C532.5 263.142 532.25 263.983 531.75 264.75C531.25 265.5 530.492 266.1 529.475 266.55C528.458 266.983 527.208 267.2 525.725 267.2ZM547.777 260.45C547.777 260.633 547.761 260.875 547.727 261.175H536.977C537.127 262.342 537.636 263.283 538.502 264C539.386 264.7 540.477 265.05 541.777 265.05C543.361 265.05 544.636 264.517 545.602 263.45L546.927 265C546.327 265.7 545.577 266.233 544.677 266.6C543.794 266.967 542.802 267.15 541.702 267.15C540.302 267.15 539.061 266.867 537.977 266.3C536.894 265.717 536.052 264.908 535.452 263.875C534.869 262.842 534.577 261.675 534.577 260.375C534.577 259.092 534.861 257.933 535.427 256.9C536.011 255.867 536.802 255.067 537.802 254.5C538.819 253.917 539.961 253.625 541.227 253.625C542.494 253.625 543.619 253.917 544.602 254.5C545.602 255.067 546.377 255.867 546.927 256.9C547.494 257.933 547.777 259.117 547.777 260.45ZM541.227 255.65C540.077 255.65 539.111 256 538.327 256.7C537.561 257.4 537.111 258.317 536.977 259.45H545.477C545.344 258.333 544.886 257.425 544.102 256.725C543.336 256.008 542.377 255.65 541.227 255.65ZM558.185 253.625C559.868 253.625 561.202 254.117 562.185 255.1C563.185 256.067 563.685 257.492 563.685 259.375V267H561.285V259.65C561.285 258.367 560.977 257.4 560.36 256.75C559.743 256.1 558.86 255.775 557.71 255.775C556.41 255.775 555.385 256.158 554.635 256.925C553.885 257.675 553.51 258.758 553.51 260.175V267H551.11V253.75H553.41V255.75C553.893 255.067 554.543 254.542 555.36 254.175C556.193 253.808 557.135 253.625 558.185 253.625ZM568.127 253.75H570.527V267H568.127V253.75ZM569.327 251.2C568.86 251.2 568.468 251.05 568.152 250.75C567.852 250.45 567.702 250.083 567.702 249.65C567.702 249.217 567.852 248.85 568.152 248.55C568.468 248.233 568.86 248.075 569.327 248.075C569.793 248.075 570.177 248.225 570.477 248.525C570.793 248.808 570.952 249.167 570.952 249.6C570.952 250.05 570.793 250.433 570.477 250.75C570.177 251.05 569.793 251.2 569.327 251.2ZM580.784 267.15C579.467 267.15 578.284 266.858 577.234 266.275C576.184 265.692 575.359 264.892 574.759 263.875C574.176 262.842 573.884 261.675 573.884 260.375C573.884 259.075 574.176 257.917 574.759 256.9C575.359 255.867 576.184 255.067 577.234 254.5C578.284 253.917 579.467 253.625 580.784 253.625C582.101 253.625 583.276 253.917 584.309 254.5C585.359 255.067 586.176 255.867 586.759 256.9C587.359 257.917 587.659 259.075 587.659 260.375C587.659 261.675 587.359 262.842 586.759 263.875C586.176 264.892 585.359 265.692 584.309 266.275C583.276 266.858 582.101 267.15 580.784 267.15ZM580.784 265.05C581.634 265.05 582.392 264.858 583.059 264.475C583.742 264.075 584.276 263.525 584.659 262.825C585.042 262.108 585.234 261.292 585.234 260.375C585.234 259.458 585.042 258.65 584.659 257.95C584.276 257.233 583.742 256.683 583.059 256.3C582.392 255.917 581.634 255.725 580.784 255.725C579.934 255.725 579.167 255.917 578.484 256.3C577.817 256.683 577.284 257.233 576.884 257.95C576.501 258.65 576.309 259.458 576.309 260.375C576.309 261.292 576.501 262.108 576.884 262.825C577.284 263.525 577.817 264.075 578.484 264.475C579.167 264.858 579.934 265.05 580.784 265.05ZM593.278 255.975C593.695 255.208 594.311 254.625 595.128 254.225C595.945 253.825 596.936 253.625 598.103 253.625V255.95C597.97 255.933 597.786 255.925 597.553 255.925C596.253 255.925 595.228 256.317 594.478 257.1C593.745 257.867 593.378 258.967 593.378 260.4V267H590.978V253.75H593.278V255.975ZM624.521 267L624.496 254.25L618.171 264.875H617.021L610.696 254.325V267H608.296V249.5H610.346L617.646 261.8L624.846 249.5H626.896L626.921 267H624.521ZM636.648 253.625C638.481 253.625 639.881 254.075 640.848 254.975C641.831 255.875 642.323 257.217 642.323 259V267H640.048V265.25C639.648 265.867 639.073 266.342 638.323 266.675C637.59 266.992 636.715 267.15 635.698 267.15C634.215 267.15 633.023 266.792 632.123 266.075C631.24 265.358 630.798 264.417 630.798 263.25C630.798 262.083 631.223 261.15 632.073 260.45C632.923 259.733 634.273 259.375 636.123 259.375H639.923V258.9C639.923 257.867 639.623 257.075 639.023 256.525C638.423 255.975 637.54 255.7 636.373 255.7C635.59 255.7 634.823 255.833 634.073 256.1C633.323 256.35 632.69 256.692 632.173 257.125L631.173 255.325C631.856 254.775 632.673 254.358 633.623 254.075C634.573 253.775 635.581 253.625 636.648 253.625ZM636.098 265.3C637.015 265.3 637.806 265.1 638.473 264.7C639.14 264.283 639.623 263.7 639.923 262.95V261.1H636.223C634.19 261.1 633.173 261.783 633.173 263.15C633.173 263.817 633.431 264.342 633.948 264.725C634.465 265.108 635.181 265.3 636.098 265.3ZM653.839 253.625C655.523 253.625 656.856 254.117 657.839 255.1C658.839 256.067 659.339 257.492 659.339 259.375V267H656.939V259.65C656.939 258.367 656.631 257.4 656.014 256.75C655.398 256.1 654.514 255.775 653.364 255.775C652.064 255.775 651.039 256.158 650.289 256.925C649.539 257.675 649.164 258.758 649.164 260.175V267H646.764V253.75H649.064V255.75C649.548 255.067 650.198 254.542 651.014 254.175C651.848 253.808 652.789 253.625 653.839 253.625ZM668.606 253.625C670.439 253.625 671.839 254.075 672.806 254.975C673.789 255.875 674.281 257.217 674.281 259V267H672.006V265.25C671.606 265.867 671.031 266.342 670.281 266.675C669.548 266.992 668.673 267.15 667.656 267.15C666.173 267.15 664.981 266.792 664.081 266.075C663.198 265.358 662.756 264.417 662.756 263.25C662.756 262.083 663.181 261.15 664.031 260.45C664.881 259.733 666.231 259.375 668.081 259.375H671.881V258.9C671.881 257.867 671.581 257.075 670.981 256.525C670.381 255.975 669.498 255.7 668.331 255.7C667.548 255.7 666.781 255.833 666.031 256.1C665.281 256.35 664.648 256.692 664.131 257.125L663.131 255.325C663.814 254.775 664.631 254.358 665.581 254.075C666.531 253.775 667.539 253.625 668.606 253.625ZM668.056 265.3C668.973 265.3 669.764 265.1 670.431 264.7C671.098 264.283 671.581 263.7 671.881 262.95V261.1H668.181C666.148 261.1 665.131 261.783 665.131 263.15C665.131 263.817 665.389 264.342 665.906 264.725C666.423 265.108 667.139 265.3 668.056 265.3ZM691.471 253.75V265.2C691.471 267.517 690.896 269.225 689.746 270.325C688.596 271.442 686.879 272 684.596 272C683.346 272 682.154 271.825 681.021 271.475C679.887 271.142 678.971 270.658 678.271 270.025L679.421 268.175C680.037 268.708 680.796 269.125 681.696 269.425C682.612 269.742 683.554 269.9 684.521 269.9C686.071 269.9 687.212 269.533 687.946 268.8C688.696 268.067 689.071 266.95 689.071 265.45V264.4C688.504 265.083 687.804 265.6 686.971 265.95C686.154 266.283 685.262 266.45 684.296 266.45C683.029 266.45 681.879 266.183 680.846 265.65C679.829 265.1 679.029 264.342 678.446 263.375C677.862 262.392 677.571 261.275 677.571 260.025C677.571 258.775 677.862 257.667 678.446 256.7C679.029 255.717 679.829 254.958 680.846 254.425C681.879 253.892 683.029 253.625 684.296 253.625C685.296 253.625 686.221 253.808 687.071 254.175C687.937 254.542 688.646 255.083 689.196 255.8V253.75H691.471ZM684.571 264.35C685.437 264.35 686.212 264.167 686.896 263.8C687.596 263.433 688.137 262.925 688.521 262.275C688.921 261.608 689.121 260.858 689.121 260.025C689.121 258.742 688.696 257.708 687.846 256.925C686.996 256.125 685.904 255.725 684.571 255.725C683.221 255.725 682.121 256.125 681.271 256.925C680.421 257.708 679.996 258.742 679.996 260.025C679.996 260.858 680.187 261.608 680.571 262.275C680.971 262.925 681.512 263.433 682.196 263.8C682.896 264.167 683.687 264.35 684.571 264.35ZM708.031 260.45C708.031 260.633 708.015 260.875 707.981 261.175H697.231C697.381 262.342 697.89 263.283 698.756 264C699.64 264.7 700.731 265.05 702.031 265.05C703.615 265.05 704.89 264.517 705.856 263.45L707.181 265C706.581 265.7 705.831 266.233 704.931 266.6C704.048 266.967 703.056 267.15 701.956 267.15C700.556 267.15 699.315 266.867 698.231 266.3C697.148 265.717 696.306 264.908 695.706 263.875C695.123 262.842 694.831 261.675 694.831 260.375C694.831 259.092 695.115 257.933 695.681 256.9C696.265 255.867 697.056 255.067 698.056 254.5C699.073 253.917 700.215 253.625 701.481 253.625C702.748 253.625 703.873 253.917 704.856 254.5C705.856 255.067 706.631 255.867 707.181 256.9C707.748 257.933 708.031 259.117 708.031 260.45ZM701.481 255.65C700.331 255.65 699.365 256 698.581 256.7C697.815 257.4 697.365 258.317 697.231 259.45H705.731C705.598 258.333 705.14 257.425 704.356 256.725C703.59 256.008 702.631 255.65 701.481 255.65ZM727.939 253.625C729.606 253.625 730.922 254.108 731.889 255.075C732.872 256.042 733.364 257.475 733.364 259.375V267H730.964V259.65C730.964 258.367 730.664 257.4 730.064 256.75C729.481 256.1 728.639 255.775 727.539 255.775C726.322 255.775 725.356 256.158 724.639 256.925C723.922 257.675 723.564 258.758 723.564 260.175V267H721.164V259.65C721.164 258.367 720.864 257.4 720.264 256.75C719.681 256.1 718.839 255.775 717.739 255.775C716.522 255.775 715.556 256.158 714.839 256.925C714.122 257.675 713.764 258.758 713.764 260.175V267H711.364V253.75H713.664V255.725C714.147 255.042 714.781 254.525 715.564 254.175C716.347 253.808 717.239 253.625 718.239 253.625C719.272 253.625 720.189 253.833 720.989 254.25C721.789 254.667 722.406 255.275 722.839 256.075C723.339 255.308 724.031 254.708 724.914 254.275C725.814 253.842 726.822 253.625 727.939 253.625ZM749.828 260.45C749.828 260.633 749.811 260.875 749.778 261.175H739.028C739.178 262.342 739.686 263.283 740.553 264C741.436 264.7 742.528 265.05 743.828 265.05C745.411 265.05 746.686 264.517 747.653 263.45L748.978 265C748.378 265.7 747.628 266.233 746.728 266.6C745.845 266.967 744.853 267.15 743.753 267.15C742.353 267.15 741.111 266.867 740.028 266.3C738.945 265.717 738.103 264.908 737.503 263.875C736.92 262.842 736.628 261.675 736.628 260.375C736.628 259.092 736.911 257.933 737.478 256.9C738.061 255.867 738.853 255.067 739.853 254.5C740.87 253.917 742.011 253.625 743.278 253.625C744.545 253.625 745.67 253.917 746.653 254.5C747.653 255.067 748.428 255.867 748.978 256.9C749.545 257.933 749.828 259.117 749.828 260.45ZM743.278 255.65C742.128 255.65 741.161 256 740.378 256.7C739.611 257.4 739.161 258.317 739.028 259.45H747.528C747.395 258.333 746.936 257.425 746.153 256.725C745.386 256.008 744.428 255.65 743.278 255.65ZM760.236 253.625C761.919 253.625 763.252 254.117 764.236 255.1C765.236 256.067 765.736 257.492 765.736 259.375V267H763.336V259.65C763.336 258.367 763.027 257.4 762.411 256.75C761.794 256.1 760.911 255.775 759.761 255.775C758.461 255.775 757.436 256.158 756.686 256.925C755.936 257.675 755.561 258.758 755.561 260.175V267H753.161V253.75H755.461V255.75C755.944 255.067 756.594 254.542 757.411 254.175C758.244 253.808 759.186 253.625 760.236 253.625ZM777.627 266.225C777.277 266.525 776.844 266.758 776.327 266.925C775.811 267.075 775.277 267.15 774.727 267.15C773.394 267.15 772.361 266.792 771.627 266.075C770.894 265.358 770.527 264.333 770.527 263V255.725H768.277V253.75H770.527V250.85H772.927V253.75H776.727V255.725H772.927V262.9C772.927 263.617 773.102 264.167 773.452 264.55C773.819 264.933 774.336 265.125 775.002 265.125C775.736 265.125 776.361 264.917 776.877 264.5L777.627 266.225Z" fill="black"/>
<path d="M637.85 440L637.825 427.25L631.5 437.875H630.35L624.025 427.325V440H621.625V422.5H623.675L630.975 434.8L638.175 422.5H640.225L640.25 440H637.85ZM645.152 426.75H647.552V440H645.152V426.75ZM646.352 424.2C645.885 424.2 645.494 424.05 645.177 423.75C644.877 423.45 644.727 423.083 644.727 422.65C644.727 422.217 644.877 421.85 645.177 421.55C645.494 421.233 645.885 421.075 646.352 421.075C646.819 421.075 647.202 421.225 647.502 421.525C647.819 421.808 647.977 422.167 647.977 422.6C647.977 423.05 647.819 423.433 647.502 423.75C647.202 424.05 646.819 424.2 646.352 424.2ZM664.634 421.45V440H662.334V437.9C661.801 438.633 661.126 439.192 660.309 439.575C659.493 439.958 658.593 440.15 657.609 440.15C656.326 440.15 655.176 439.867 654.159 439.3C653.143 438.733 652.343 437.942 651.759 436.925C651.193 435.892 650.909 434.708 650.909 433.375C650.909 432.042 651.193 430.867 651.759 429.85C652.343 428.833 653.143 428.042 654.159 427.475C655.176 426.908 656.326 426.625 657.609 426.625C658.559 426.625 659.434 426.808 660.234 427.175C661.034 427.525 661.701 428.05 662.234 428.75V421.45H664.634ZM657.809 438.05C658.643 438.05 659.401 437.858 660.084 437.475C660.768 437.075 661.301 436.525 661.684 435.825C662.068 435.108 662.259 434.292 662.259 433.375C662.259 432.458 662.068 431.65 661.684 430.95C661.301 430.233 660.768 429.683 660.084 429.3C659.401 428.917 658.643 428.725 657.809 428.725C656.959 428.725 656.193 428.917 655.509 429.3C654.843 429.683 654.309 430.233 653.909 430.95C653.526 431.65 653.334 432.458 653.334 433.375C653.334 434.292 653.526 435.108 653.909 435.825C654.309 436.525 654.843 437.075 655.509 437.475C656.193 437.858 656.959 438.05 657.809 438.05ZM681.675 421.45V440H679.375V437.9C678.842 438.633 678.167 439.192 677.35 439.575C676.534 439.958 675.634 440.15 674.65 440.15C673.367 440.15 672.217 439.867 671.2 439.3C670.184 438.733 669.384 437.942 668.8 436.925C668.234 435.892 667.95 434.708 667.95 433.375C667.95 432.042 668.234 430.867 668.8 429.85C669.384 428.833 670.184 428.042 671.2 427.475C672.217 426.908 673.367 426.625 674.65 426.625C675.6 426.625 676.475 426.808 677.275 427.175C678.075 427.525 678.742 428.05 679.275 428.75V421.45H681.675ZM674.85 438.05C675.684 438.05 676.442 437.858 677.125 437.475C677.809 437.075 678.342 436.525 678.725 435.825C679.109 435.108 679.3 434.292 679.3 433.375C679.3 432.458 679.109 431.65 678.725 430.95C678.342 430.233 677.809 429.683 677.125 429.3C676.442 428.917 675.684 428.725 674.85 428.725C674 428.725 673.234 428.917 672.55 429.3C671.884 429.683 671.35 430.233 670.95 430.95C670.567 431.65 670.375 432.458 670.375 433.375C670.375 434.292 670.567 435.108 670.95 435.825C671.35 436.525 671.884 437.075 672.55 437.475C673.234 437.858 674 438.05 674.85 438.05ZM686.216 421.45H688.616V440H686.216V421.45ZM705.174 433.45C705.174 433.633 705.157 433.875 705.124 434.175H694.374C694.524 435.342 695.032 436.283 695.899 437C696.782 437.7 697.874 438.05 699.174 438.05C700.757 438.05 702.032 437.517 702.999 436.45L704.324 438C703.724 438.7 702.974 439.233 702.074 439.6C701.19 439.967 700.199 440.15 699.099 440.15C697.699 440.15 696.457 439.867 695.374 439.3C694.29 438.717 693.449 437.908 692.849 436.875C692.265 435.842 691.974 434.675 691.974 433.375C691.974 432.092 692.257 430.933 692.824 429.9C693.407 428.867 694.199 428.067 695.199 427.5C696.215 426.917 697.357 426.625 698.624 426.625C699.89 426.625 701.015 426.917 701.999 427.5C702.999 428.067 703.774 428.867 704.324 429.9C704.89 430.933 705.174 432.117 705.174 433.45ZM698.624 428.65C697.474 428.65 696.507 429 695.724 429.7C694.957 430.4 694.507 431.317 694.374 432.45H702.874C702.74 431.333 702.282 430.425 701.499 429.725C700.732 429.008 699.774 428.65 698.624 428.65ZM731.795 440L731.77 427.25L725.445 437.875H724.295L717.97 427.325V440H715.57V422.5H717.62L724.92 434.8L732.12 422.5H734.17L734.195 440H731.795ZM743.922 426.625C745.756 426.625 747.156 427.075 748.122 427.975C749.106 428.875 749.597 430.217 749.597 432V440H747.322V438.25C746.922 438.867 746.347 439.342 745.597 439.675C744.864 439.992 743.989 440.15 742.972 440.15C741.489 440.15 740.297 439.792 739.397 439.075C738.514 438.358 738.072 437.417 738.072 436.25C738.072 435.083 738.497 434.15 739.347 433.45C740.197 432.733 741.547 432.375 743.397 432.375H747.197V431.9C747.197 430.867 746.897 430.075 746.297 429.525C745.697 428.975 744.814 428.7 743.647 428.7C742.864 428.7 742.097 428.833 741.347 429.1C740.597 429.35 739.964 429.692 739.447 430.125L738.447 428.325C739.131 427.775 739.947 427.358 740.897 427.075C741.847 426.775 742.856 426.625 743.922 426.625ZM743.372 438.3C744.289 438.3 745.081 438.1 745.747 437.7C746.414 437.283 746.897 436.7 747.197 435.95V434.1H743.497C741.464 434.1 740.447 434.783 740.447 436.15C740.447 436.817 740.706 437.342 741.222 437.725C741.739 438.108 742.456 438.3 743.372 438.3ZM761.114 426.625C762.797 426.625 764.13 427.117 765.114 428.1C766.114 429.067 766.614 430.492 766.614 432.375V440H764.214V432.65C764.214 431.367 763.905 430.4 763.289 429.75C762.672 429.1 761.789 428.775 760.639 428.775C759.339 428.775 758.314 429.158 757.564 429.925C756.814 430.675 756.439 431.758 756.439 433.175V440H754.039V426.75H756.339V428.75C756.822 428.067 757.472 427.542 758.289 427.175C759.122 426.808 760.064 426.625 761.114 426.625ZM775.88 426.625C777.714 426.625 779.114 427.075 780.08 427.975C781.064 428.875 781.555 430.217 781.555 432V440H779.28V438.25C778.88 438.867 778.305 439.342 777.555 439.675C776.822 439.992 775.947 440.15 774.93 440.15C773.447 440.15 772.255 439.792 771.355 439.075C770.472 438.358 770.03 437.417 770.03 436.25C770.03 435.083 770.455 434.15 771.305 433.45C772.155 432.733 773.505 432.375 775.355 432.375H779.155V431.9C779.155 430.867 778.855 430.075 778.255 429.525C777.655 428.975 776.772 428.7 775.605 428.7C774.822 428.7 774.055 428.833 773.305 429.1C772.555 429.35 771.922 429.692 771.405 430.125L770.405 428.325C771.089 427.775 771.905 427.358 772.855 427.075C773.805 426.775 774.814 426.625 775.88 426.625ZM775.33 438.3C776.247 438.3 777.039 438.1 777.705 437.7C778.372 437.283 778.855 436.7 779.155 435.95V434.1H775.455C773.422 434.1 772.405 434.783 772.405 436.15C772.405 436.817 772.664 437.342 773.18 437.725C773.697 438.108 774.414 438.3 775.33 438.3ZM798.745 426.75V438.2C798.745 440.517 798.17 442.225 797.02 443.325C795.87 444.442 794.153 445 791.87 445C790.62 445 789.428 444.825 788.295 444.475C787.162 444.142 786.245 443.658 785.545 443.025L786.695 441.175C787.312 441.708 788.07 442.125 788.97 442.425C789.887 442.742 790.828 442.9 791.795 442.9C793.345 442.9 794.487 442.533 795.22 441.8C795.97 441.067 796.345 439.95 796.345 438.45V437.4C795.778 438.083 795.078 438.6 794.245 438.95C793.428 439.283 792.537 439.45 791.57 439.45C790.303 439.45 789.153 439.183 788.12 438.65C787.103 438.1 786.303 437.342 785.72 436.375C785.137 435.392 784.845 434.275 784.845 433.025C784.845 431.775 785.137 430.667 785.72 429.7C786.303 428.717 787.103 427.958 788.12 427.425C789.153 426.892 790.303 426.625 791.57 426.625C792.57 426.625 793.495 426.808 794.345 427.175C795.212 427.542 795.92 428.083 796.47 428.8V426.75H798.745ZM791.845 437.35C792.712 437.35 793.487 437.167 794.17 436.8C794.87 436.433 795.412 435.925 795.795 435.275C796.195 434.608 796.395 433.858 796.395 433.025C796.395 431.742 795.97 430.708 795.12 429.925C794.27 429.125 793.178 428.725 791.845 428.725C790.495 428.725 789.395 429.125 788.545 429.925C787.695 430.708 787.27 431.742 787.27 433.025C787.27 433.858 787.462 434.608 787.845 435.275C788.245 435.925 788.787 436.433 789.47 436.8C790.17 437.167 790.962 437.35 791.845 437.35ZM815.306 433.45C815.306 433.633 815.289 433.875 815.256 434.175H804.506C804.656 435.342 805.164 436.283 806.031 437C806.914 437.7 808.006 438.05 809.306 438.05C810.889 438.05 812.164 437.517 813.131 436.45L814.456 438C813.856 438.7 813.106 439.233 812.206 439.6C811.322 439.967 810.331 440.15 809.231 440.15C807.831 440.15 806.589 439.867 805.506 439.3C804.422 438.717 803.581 437.908 802.981 436.875C802.397 435.842 802.106 434.675 802.106 433.375C802.106 432.092 802.389 430.933 802.956 429.9C803.539 428.867 804.331 428.067 805.331 427.5C806.347 426.917 807.489 426.625 808.756 426.625C810.022 426.625 811.147 426.917 812.131 427.5C813.131 428.067 813.906 428.867 814.456 429.9C815.022 430.933 815.306 432.117 815.306 433.45ZM808.756 428.65C807.606 428.65 806.639 429 805.856 429.7C805.089 430.4 804.639 431.317 804.506 432.45H813.006C812.872 431.333 812.414 430.425 811.631 429.725C810.864 429.008 809.906 428.65 808.756 428.65ZM835.213 426.625C836.88 426.625 838.197 427.108 839.163 428.075C840.147 429.042 840.638 430.475 840.638 432.375V440H838.238V432.65C838.238 431.367 837.938 430.4 837.338 429.75C836.755 429.1 835.913 428.775 834.813 428.775C833.597 428.775 832.63 429.158 831.913 429.925C831.197 430.675 830.838 431.758 830.838 433.175V440H828.438V432.65C828.438 431.367 828.138 430.4 827.538 429.75C826.955 429.1 826.113 428.775 825.013 428.775C823.797 428.775 822.83 429.158 822.113 429.925C821.397 430.675 821.038 431.758 821.038 433.175V440H818.638V426.75H820.938V428.725C821.422 428.042 822.055 427.525 822.838 427.175C823.622 426.808 824.513 426.625 825.513 426.625C826.547 426.625 827.463 426.833 828.263 427.25C829.063 427.667 829.68 428.275 830.113 429.075C830.613 428.308 831.305 427.708 832.188 427.275C833.088 426.842 834.097 426.625 835.213 426.625ZM857.103 433.45C857.103 433.633 857.086 433.875 857.053 434.175H846.303C846.453 435.342 846.961 436.283 847.828 437C848.711 437.7 849.803 438.05 851.103 438.05C852.686 438.05 853.961 437.517 854.928 436.45L856.253 438C855.653 438.7 854.903 439.233 854.003 439.6C853.119 439.967 852.128 440.15 851.028 440.15C849.628 440.15 848.386 439.867 847.303 439.3C846.219 438.717 845.378 437.908 844.778 436.875C844.194 435.842 843.903 434.675 843.903 433.375C843.903 432.092 844.186 430.933 844.753 429.9C845.336 428.867 846.128 428.067 847.128 427.5C848.144 426.917 849.286 426.625 850.553 426.625C851.819 426.625 852.944 426.917 853.928 427.5C854.928 428.067 855.703 428.867 856.253 429.9C856.819 430.933 857.103 432.117 857.103 433.45ZM850.553 428.65C849.403 428.65 848.436 429 847.653 429.7C846.886 430.4 846.436 431.317 846.303 432.45H854.803C854.669 431.333 854.211 430.425 853.428 429.725C852.661 429.008 851.703 428.65 850.553 428.65ZM867.51 426.625C869.193 426.625 870.527 427.117 871.51 428.1C872.51 429.067 873.01 430.492 873.01 432.375V440H870.61V432.65C870.61 431.367 870.302 430.4 869.685 429.75C869.068 429.1 868.185 428.775 867.035 428.775C865.735 428.775 864.71 429.158 863.96 429.925C863.21 430.675 862.835 431.758 862.835 433.175V440H860.435V426.75H862.735V428.75C863.218 428.067 863.868 427.542 864.685 427.175C865.518 426.808 866.46 426.625 867.51 426.625ZM884.902 439.225C884.552 439.525 884.118 439.758 883.602 439.925C883.085 440.075 882.552 440.15 882.002 440.15C880.668 440.15 879.635 439.792 878.902 439.075C878.168 438.358 877.802 437.333 877.802 436V428.725H875.552V426.75H877.802V423.85H880.202V426.75H884.002V428.725H880.202V435.9C880.202 436.617 880.377 437.167 880.727 437.55C881.093 437.933 881.61 438.125 882.277 438.125C883.01 438.125 883.635 437.917 884.152 437.5L884.902 439.225Z" fill="black"/>
<line x1="350" y1="85.5" x2="410" y2="85.5" stroke="black"/>
<line x1="447" y1="258.5" x2="507" y2="258.5" stroke="black"/>
<line x1="548" y1="431.5" x2="608" y2="431.5" stroke="black"/>
</svg>
