<svg width="962" height="518" viewBox="0 0 962 518" fill="none" xmlns="http://www.w3.org/2000/svg">
<path fill-rule="evenodd" clip-rule="evenodd" d="M0 518L99.6892 345.333H498.446L598.135 518L0 518Z" fill="#F9C133" fill-opacity="0.89"/>
<path fill-rule="evenodd" clip-rule="evenodd" d="M99.9106 345.334L199.6 172.667H398.978L498.667 345.334H99.9106Z" fill="#E8C927" fill-opacity="0.69"/>
<path fill-rule="evenodd" clip-rule="evenodd" d="M399.671 172.667H200.293L299.982 0L399.671 172.667Z" fill="#F2DF2D" fill-opacity="0.53"/>
<path d="M432.45 95.2C430.7 95.2 429.117 94.8167 427.7 94.05C426.3 93.2667 425.2 92.2 424.4 90.85C423.6 89.4833 423.2 87.95 423.2 86.25C423.2 84.55 423.6 83.025 424.4 81.675C425.2 80.3083 426.308 79.2417 427.725 78.475C429.142 77.6917 430.725 77.3 432.475 77.3C433.842 77.3 435.092 77.5333 436.225 78C437.358 78.45 438.325 79.125 439.125 80.025L437.5 81.6C436.183 80.2167 434.542 79.525 432.575 79.525C431.275 79.525 430.1 79.8167 429.05 80.4C428 80.9833 427.175 81.7917 426.575 82.825C425.992 83.8417 425.7 84.9833 425.7 86.25C425.7 87.5167 425.992 88.6667 426.575 89.7C427.175 90.7167 428 91.5167 429.05 92.1C430.1 92.6833 431.275 92.975 432.575 92.975C434.525 92.975 436.167 92.275 437.5 90.875L439.125 92.45C438.325 93.35 437.35 94.0333 436.2 94.5C435.067 94.9667 433.817 95.2 432.45 95.2ZM441.418 87.1H448.143V89.175H441.418V87.1ZM456.873 95.2C455.557 95.2 454.282 95 453.048 94.6C451.832 94.1833 450.873 93.65 450.173 93L451.098 91.05C451.765 91.65 452.615 92.1417 453.648 92.525C454.698 92.8917 455.773 93.075 456.873 93.075C458.323 93.075 459.407 92.8333 460.123 92.35C460.84 91.85 461.198 91.1917 461.198 90.375C461.198 89.775 460.998 89.2917 460.598 88.925C460.215 88.5417 459.732 88.25 459.148 88.05C458.582 87.85 457.773 87.625 456.723 87.375C455.407 87.0583 454.34 86.7417 453.523 86.425C452.723 86.1083 452.032 85.625 451.448 84.975C450.882 84.3083 450.598 83.4167 450.598 82.3C450.598 81.3667 450.84 80.525 451.323 79.775C451.823 79.025 452.573 78.425 453.573 77.975C454.573 77.525 455.815 77.3 457.298 77.3C458.332 77.3 459.348 77.4333 460.348 77.7C461.348 77.9667 462.207 78.35 462.923 78.85L462.098 80.85C461.365 80.3833 460.582 80.0333 459.748 79.8C458.915 79.55 458.098 79.425 457.298 79.425C455.882 79.425 454.815 79.6833 454.098 80.2C453.398 80.7167 453.048 81.3833 453.048 82.2C453.048 82.8 453.248 83.2917 453.648 83.675C454.048 84.0417 454.54 84.3333 455.123 84.55C455.723 84.75 456.532 84.9667 457.548 85.2C458.865 85.5167 459.923 85.8333 460.723 86.15C461.523 86.4667 462.207 86.95 462.773 87.6C463.357 88.25 463.648 89.125 463.648 90.225C463.648 91.1417 463.398 91.9833 462.898 92.75C462.398 93.5 461.64 94.1 460.623 94.55C459.607 94.9833 458.357 95.2 456.873 95.2ZM479.301 81.75V95H477.026V93C476.542 93.6833 475.901 94.2167 475.101 94.6C474.317 94.9667 473.459 95.15 472.526 95.15C470.759 95.15 469.367 94.6667 468.351 93.7C467.334 92.7167 466.826 91.275 466.826 89.375V81.75H469.226V89.1C469.226 90.3833 469.534 91.3583 470.151 92.025C470.767 92.675 471.651 93 472.801 93C474.067 93 475.067 92.6167 475.801 91.85C476.534 91.0833 476.901 90 476.901 88.6V81.75H479.301ZM483.87 81.75H486.27V95H483.87V81.75ZM485.07 79.2C484.603 79.2 484.211 79.05 483.895 78.75C483.595 78.45 483.445 78.0833 483.445 77.65C483.445 77.2167 483.595 76.85 483.895 76.55C484.211 76.2333 484.603 76.075 485.07 76.075C485.536 76.075 485.92 76.225 486.22 76.525C486.536 76.8083 486.695 77.1667 486.695 77.6C486.695 78.05 486.536 78.4333 486.22 78.75C485.92 79.05 485.536 79.2 485.07 79.2ZM498.302 94.225C497.952 94.525 497.519 94.7583 497.002 94.925C496.485 95.075 495.952 95.15 495.402 95.15C494.069 95.15 493.035 94.7917 492.302 94.075C491.569 93.3583 491.202 92.3333 491.202 91V83.725H488.952V81.75H491.202V78.85H493.602V81.75H497.402V83.725H493.602V90.9C493.602 91.6167 493.777 92.1667 494.127 92.55C494.494 92.9333 495.01 93.125 495.677 93.125C496.41 93.125 497.035 92.9167 497.552 92.5L498.302 94.225Z" fill="black"/>
<path d="M528.45 268.2C526.7 268.2 525.117 267.817 523.7 267.05C522.3 266.267 521.2 265.2 520.4 263.85C519.6 262.483 519.2 260.95 519.2 259.25C519.2 257.55 519.6 256.025 520.4 254.675C521.2 253.308 522.308 252.242 523.725 251.475C525.142 250.692 526.725 250.3 528.475 250.3C529.842 250.3 531.092 250.533 532.225 251C533.358 251.45 534.325 252.125 535.125 253.025L533.5 254.6C532.183 253.217 530.542 252.525 528.575 252.525C527.275 252.525 526.1 252.817 525.05 253.4C524 253.983 523.175 254.792 522.575 255.825C521.992 256.842 521.7 257.983 521.7 259.25C521.7 260.517 521.992 261.667 522.575 262.7C523.175 263.717 524 264.517 525.05 265.1C526.1 265.683 527.275 265.975 528.575 265.975C530.525 265.975 532.167 265.275 533.5 263.875L535.125 265.45C534.325 266.35 533.35 267.033 532.2 267.5C531.067 267.967 529.817 268.2 528.45 268.2ZM537.418 260.1H544.143V262.175H537.418V260.1ZM551.749 250.5V268H549.274V252.675H545.324V250.5H551.749ZM568.816 268.2C567.499 268.2 566.224 268 564.991 267.6C563.774 267.183 562.816 266.65 562.116 266L563.041 264.05C563.707 264.65 564.557 265.142 565.591 265.525C566.641 265.892 567.716 266.075 568.816 266.075C570.266 266.075 571.349 265.833 572.066 265.35C572.782 264.85 573.141 264.192 573.141 263.375C573.141 262.775 572.941 262.292 572.541 261.925C572.157 261.542 571.674 261.25 571.091 261.05C570.524 260.85 569.716 260.625 568.666 260.375C567.349 260.058 566.282 259.742 565.466 259.425C564.666 259.108 563.974 258.625 563.391 257.975C562.824 257.308 562.541 256.417 562.541 255.3C562.541 254.367 562.782 253.525 563.266 252.775C563.766 252.025 564.516 251.425 565.516 250.975C566.516 250.525 567.757 250.3 569.241 250.3C570.274 250.3 571.291 250.433 572.291 250.7C573.291 250.967 574.149 251.35 574.866 251.85L574.041 253.85C573.307 253.383 572.524 253.033 571.691 252.8C570.857 252.55 570.041 252.425 569.241 252.425C567.824 252.425 566.757 252.683 566.041 253.2C565.341 253.717 564.991 254.383 564.991 255.2C564.991 255.8 565.191 256.292 565.591 256.675C565.991 257.042 566.482 257.333 567.066 257.55C567.666 257.75 568.474 257.967 569.491 258.2C570.807 258.517 571.866 258.833 572.666 259.15C573.466 259.467 574.149 259.95 574.716 260.6C575.299 261.25 575.591 262.125 575.591 263.225C575.591 264.142 575.341 264.983 574.841 265.75C574.341 266.5 573.582 267.1 572.566 267.55C571.549 267.983 570.299 268.2 568.816 268.2ZM590.868 261.45C590.868 261.633 590.851 261.875 590.818 262.175H580.068C580.218 263.342 580.726 264.283 581.593 265C582.476 265.7 583.568 266.05 584.868 266.05C586.451 266.05 587.726 265.517 588.693 264.45L590.018 266C589.418 266.7 588.668 267.233 587.768 267.6C586.885 267.967 585.893 268.15 584.793 268.15C583.393 268.15 582.151 267.867 581.068 267.3C579.985 266.717 579.143 265.908 578.543 264.875C577.96 263.842 577.668 262.675 577.668 261.375C577.668 260.092 577.951 258.933 578.518 257.9C579.101 256.867 579.893 256.067 580.893 255.5C581.91 254.917 583.051 254.625 584.318 254.625C585.585 254.625 586.71 254.917 587.693 255.5C588.693 256.067 589.468 256.867 590.018 257.9C590.585 258.933 590.868 260.117 590.868 261.45ZM584.318 256.65C583.168 256.65 582.201 257 581.418 257.7C580.651 258.4 580.201 259.317 580.068 260.45H588.568C588.435 259.333 587.976 258.425 587.193 257.725C586.426 257.008 585.468 256.65 584.318 256.65ZM601.276 254.625C602.959 254.625 604.292 255.117 605.276 256.1C606.276 257.067 606.776 258.492 606.776 260.375V268H604.376V260.65C604.376 259.367 604.067 258.4 603.451 257.75C602.834 257.1 601.951 256.775 600.801 256.775C599.501 256.775 598.476 257.158 597.726 257.925C596.976 258.675 596.601 259.758 596.601 261.175V268H594.201V254.75H596.501V256.75C596.984 256.067 597.634 255.542 598.451 255.175C599.284 254.808 600.226 254.625 601.276 254.625ZM611.217 254.75H613.617V268H611.217V254.75ZM612.417 252.2C611.951 252.2 611.559 252.05 611.242 251.75C610.942 251.45 610.792 251.083 610.792 250.65C610.792 250.217 610.942 249.85 611.242 249.55C611.559 249.233 611.951 249.075 612.417 249.075C612.884 249.075 613.267 249.225 613.567 249.525C613.884 249.808 614.042 250.167 614.042 250.6C614.042 251.05 613.884 251.433 613.567 251.75C613.267 252.05 612.884 252.2 612.417 252.2ZM623.875 268.15C622.558 268.15 621.375 267.858 620.325 267.275C619.275 266.692 618.45 265.892 617.85 264.875C617.266 263.842 616.975 262.675 616.975 261.375C616.975 260.075 617.266 258.917 617.85 257.9C618.45 256.867 619.275 256.067 620.325 255.5C621.375 254.917 622.558 254.625 623.875 254.625C625.191 254.625 626.366 254.917 627.4 255.5C628.45 256.067 629.266 256.867 629.85 257.9C630.45 258.917 630.75 260.075 630.75 261.375C630.75 262.675 630.45 263.842 629.85 264.875C629.266 265.892 628.45 266.692 627.4 267.275C626.366 267.858 625.191 268.15 623.875 268.15ZM623.875 266.05C624.725 266.05 625.483 265.858 626.15 265.475C626.833 265.075 627.366 264.525 627.75 263.825C628.133 263.108 628.325 262.292 628.325 261.375C628.325 260.458 628.133 259.65 627.75 258.95C627.366 258.233 626.833 257.683 626.15 257.3C625.483 256.917 624.725 256.725 623.875 256.725C623.025 256.725 622.258 256.917 621.575 257.3C620.908 257.683 620.375 258.233 619.975 258.95C619.591 259.65 619.4 260.458 619.4 261.375C619.4 262.292 619.591 263.108 619.975 263.825C620.375 264.525 620.908 265.075 621.575 265.475C622.258 265.858 623.025 266.05 623.875 266.05ZM636.369 256.975C636.786 256.208 637.402 255.625 638.219 255.225C639.036 254.825 640.027 254.625 641.194 254.625V256.95C641.061 256.933 640.877 256.925 640.644 256.925C639.344 256.925 638.319 257.317 637.569 258.1C636.836 258.867 636.469 259.967 636.469 261.4V268H634.069V254.75H636.369V256.975ZM667.612 268L667.587 255.25L661.262 265.875H660.112L653.787 255.325V268H651.387V250.5H653.437L660.737 262.8L667.937 250.5H669.987L670.012 268H667.612ZM679.739 254.625C681.572 254.625 682.972 255.075 683.939 255.975C684.922 256.875 685.414 258.217 685.414 260V268H683.139V266.25C682.739 266.867 682.164 267.342 681.414 267.675C680.68 267.992 679.805 268.15 678.789 268.15C677.305 268.15 676.114 267.792 675.214 267.075C674.33 266.358 673.889 265.417 673.889 264.25C673.889 263.083 674.314 262.15 675.164 261.45C676.014 260.733 677.364 260.375 679.214 260.375H683.014V259.9C683.014 258.867 682.714 258.075 682.114 257.525C681.514 256.975 680.63 256.7 679.464 256.7C678.68 256.7 677.914 256.833 677.164 257.1C676.414 257.35 675.78 257.692 675.264 258.125L674.264 256.325C674.947 255.775 675.764 255.358 676.714 255.075C677.664 254.775 678.672 254.625 679.739 254.625ZM679.189 266.3C680.105 266.3 680.897 266.1 681.564 265.7C682.23 265.283 682.714 264.7 683.014 263.95V262.1H679.314C677.28 262.1 676.264 262.783 676.264 264.15C676.264 264.817 676.522 265.342 677.039 265.725C677.555 266.108 678.272 266.3 679.189 266.3ZM696.93 254.625C698.613 254.625 699.947 255.117 700.93 256.1C701.93 257.067 702.43 258.492 702.43 260.375V268H700.03V260.65C700.03 259.367 699.722 258.4 699.105 257.75C698.488 257.1 697.605 256.775 696.455 256.775C695.155 256.775 694.13 257.158 693.38 257.925C692.63 258.675 692.255 259.758 692.255 261.175V268H689.855V254.75H692.155V256.75C692.638 256.067 693.288 255.542 694.105 255.175C694.938 254.808 695.88 254.625 696.93 254.625ZM711.697 254.625C713.53 254.625 714.93 255.075 715.897 255.975C716.88 256.875 717.372 258.217 717.372 260V268H715.097V266.25C714.697 266.867 714.122 267.342 713.372 267.675C712.638 267.992 711.763 268.15 710.747 268.15C709.263 268.15 708.072 267.792 707.172 267.075C706.288 266.358 705.847 265.417 705.847 264.25C705.847 263.083 706.272 262.15 707.122 261.45C707.972 260.733 709.322 260.375 711.172 260.375H714.972V259.9C714.972 258.867 714.672 258.075 714.072 257.525C713.472 256.975 712.588 256.7 711.422 256.7C710.638 256.7 709.872 256.833 709.122 257.1C708.372 257.35 707.738 257.692 707.222 258.125L706.222 256.325C706.905 255.775 707.722 255.358 708.672 255.075C709.622 254.775 710.63 254.625 711.697 254.625ZM711.147 266.3C712.063 266.3 712.855 266.1 713.522 265.7C714.188 265.283 714.672 264.7 714.972 263.95V262.1H711.272C709.238 262.1 708.222 262.783 708.222 264.15C708.222 264.817 708.48 265.342 708.997 265.725C709.513 266.108 710.23 266.3 711.147 266.3ZM734.561 254.75V266.2C734.561 268.517 733.986 270.225 732.836 271.325C731.686 272.442 729.97 273 727.686 273C726.436 273 725.245 272.825 724.111 272.475C722.978 272.142 722.061 271.658 721.361 271.025L722.511 269.175C723.128 269.708 723.886 270.125 724.786 270.425C725.703 270.742 726.645 270.9 727.611 270.9C729.161 270.9 730.303 270.533 731.036 269.8C731.786 269.067 732.161 267.95 732.161 266.45V265.4C731.595 266.083 730.895 266.6 730.061 266.95C729.245 267.283 728.353 267.45 727.386 267.45C726.12 267.45 724.97 267.183 723.936 266.65C722.92 266.1 722.12 265.342 721.536 264.375C720.953 263.392 720.661 262.275 720.661 261.025C720.661 259.775 720.953 258.667 721.536 257.7C722.12 256.717 722.92 255.958 723.936 255.425C724.97 254.892 726.12 254.625 727.386 254.625C728.386 254.625 729.311 254.808 730.161 255.175C731.028 255.542 731.736 256.083 732.286 256.8V254.75H734.561ZM727.661 265.35C728.528 265.35 729.303 265.167 729.986 264.8C730.686 264.433 731.228 263.925 731.611 263.275C732.011 262.608 732.211 261.858 732.211 261.025C732.211 259.742 731.786 258.708 730.936 257.925C730.086 257.125 728.995 256.725 727.661 256.725C726.311 256.725 725.211 257.125 724.361 257.925C723.511 258.708 723.086 259.742 723.086 261.025C723.086 261.858 723.278 262.608 723.661 263.275C724.061 263.925 724.603 264.433 725.286 264.8C725.986 265.167 726.778 265.35 727.661 265.35ZM751.122 261.45C751.122 261.633 751.105 261.875 751.072 262.175H740.322C740.472 263.342 740.98 264.283 741.847 265C742.73 265.7 743.822 266.05 745.122 266.05C746.705 266.05 747.98 265.517 748.947 264.45L750.272 266C749.672 266.7 748.922 267.233 748.022 267.6C747.139 267.967 746.147 268.15 745.047 268.15C743.647 268.15 742.405 267.867 741.322 267.3C740.239 266.717 739.397 265.908 738.797 264.875C738.214 263.842 737.922 262.675 737.922 261.375C737.922 260.092 738.205 258.933 738.772 257.9C739.355 256.867 740.147 256.067 741.147 255.5C742.164 254.917 743.305 254.625 744.572 254.625C745.839 254.625 746.964 254.917 747.947 255.5C748.947 256.067 749.722 256.867 750.272 257.9C750.839 258.933 751.122 260.117 751.122 261.45ZM744.572 256.65C743.422 256.65 742.455 257 741.672 257.7C740.905 258.4 740.455 259.317 740.322 260.45H748.822C748.689 259.333 748.23 258.425 747.447 257.725C746.68 257.008 745.722 256.65 744.572 256.65ZM771.03 254.625C772.696 254.625 774.013 255.108 774.98 256.075C775.963 257.042 776.455 258.475 776.455 260.375V268H774.055V260.65C774.055 259.367 773.755 258.4 773.155 257.75C772.571 257.1 771.73 256.775 770.63 256.775C769.413 256.775 768.446 257.158 767.73 257.925C767.013 258.675 766.655 259.758 766.655 261.175V268H764.255V260.65C764.255 259.367 763.955 258.4 763.355 257.75C762.771 257.1 761.93 256.775 760.83 256.775C759.613 256.775 758.646 257.158 757.93 257.925C757.213 258.675 756.855 259.758 756.855 261.175V268H754.455V254.75H756.755V256.725C757.238 256.042 757.871 255.525 758.655 255.175C759.438 254.808 760.33 254.625 761.33 254.625C762.363 254.625 763.28 254.833 764.08 255.25C764.88 255.667 765.496 256.275 765.93 257.075C766.43 256.308 767.121 255.708 768.005 255.275C768.905 254.842 769.913 254.625 771.03 254.625ZM792.919 261.45C792.919 261.633 792.902 261.875 792.869 262.175H782.119C782.269 263.342 782.777 264.283 783.644 265C784.527 265.7 785.619 266.05 786.919 266.05C788.502 266.05 789.777 265.517 790.744 264.45L792.069 266C791.469 266.7 790.719 267.233 789.819 267.6C788.936 267.967 787.944 268.15 786.844 268.15C785.444 268.15 784.202 267.867 783.119 267.3C782.036 266.717 781.194 265.908 780.594 264.875C780.011 263.842 779.719 262.675 779.719 261.375C779.719 260.092 780.002 258.933 780.569 257.9C781.152 256.867 781.944 256.067 782.944 255.5C783.961 254.917 785.102 254.625 786.369 254.625C787.636 254.625 788.761 254.917 789.744 255.5C790.744 256.067 791.519 256.867 792.069 257.9C792.636 258.933 792.919 260.117 792.919 261.45ZM786.369 256.65C785.219 256.65 784.252 257 783.469 257.7C782.702 258.4 782.252 259.317 782.119 260.45H790.619C790.486 259.333 790.027 258.425 789.244 257.725C788.477 257.008 787.519 256.65 786.369 256.65ZM803.327 254.625C805.01 254.625 806.343 255.117 807.327 256.1C808.327 257.067 808.827 258.492 808.827 260.375V268H806.427V260.65C806.427 259.367 806.118 258.4 805.502 257.75C804.885 257.1 804.002 256.775 802.852 256.775C801.552 256.775 800.527 257.158 799.777 257.925C799.027 258.675 798.652 259.758 798.652 261.175V268H796.252V254.75H798.552V256.75C799.035 256.067 799.685 255.542 800.502 255.175C801.335 254.808 802.277 254.625 803.327 254.625ZM820.718 267.225C820.368 267.525 819.935 267.758 819.418 267.925C818.901 268.075 818.368 268.15 817.818 268.15C816.485 268.15 815.451 267.792 814.718 267.075C813.985 266.358 813.618 265.333 813.618 264V256.725H811.368V254.75H813.618V251.85H816.018V254.75H819.818V256.725H816.018V263.9C816.018 264.617 816.193 265.167 816.543 265.55C816.91 265.933 817.426 266.125 818.093 266.125C818.826 266.125 819.451 265.917 819.968 265.5L820.718 267.225Z" fill="black"/>
<path d="M629.45 441.2C627.7 441.2 626.117 440.817 624.7 440.05C623.3 439.267 622.2 438.2 621.4 436.85C620.6 435.483 620.2 433.95 620.2 432.25C620.2 430.55 620.6 429.025 621.4 427.675C622.2 426.308 623.308 425.242 624.725 424.475C626.142 423.692 627.725 423.3 629.475 423.3C630.842 423.3 632.092 423.533 633.225 424C634.358 424.45 635.325 425.125 636.125 426.025L634.5 427.6C633.183 426.217 631.542 425.525 629.575 425.525C628.275 425.525 627.1 425.817 626.05 426.4C625 426.983 624.175 427.792 623.575 428.825C622.992 429.842 622.7 430.983 622.7 432.25C622.7 433.517 622.992 434.667 623.575 435.7C624.175 436.717 625 437.517 626.05 438.1C627.1 438.683 628.275 438.975 629.575 438.975C631.525 438.975 633.167 438.275 634.5 436.875L636.125 438.45C635.325 439.35 634.35 440.033 633.2 440.5C632.067 440.967 630.817 441.2 629.45 441.2ZM638.418 433.1H645.143V435.175H638.418V433.1ZM659.746 438.825V441H647.171V439.3L654.296 432.425C655.163 431.592 655.746 430.875 656.046 430.275C656.346 429.658 656.496 429.042 656.496 428.425C656.496 427.508 656.171 426.8 655.521 426.3C654.888 425.783 653.971 425.525 652.771 425.525C650.838 425.525 649.346 426.158 648.296 427.425L646.596 425.95C647.279 425.117 648.171 424.467 649.271 424C650.388 423.533 651.629 423.3 652.996 423.3C654.829 423.3 656.288 423.742 657.371 424.625C658.454 425.492 658.996 426.675 658.996 428.175C658.996 429.108 658.796 429.992 658.396 430.825C657.996 431.658 657.238 432.608 656.121 433.675L650.771 438.825H659.746ZM686.165 441L686.14 428.25L679.815 438.875H678.665L672.34 428.325V441H669.94V423.5H671.99L679.29 435.8L686.49 423.5H688.54L688.565 441H686.165ZM693.467 427.75H695.867V441H693.467V427.75ZM694.667 425.2C694.201 425.2 693.809 425.05 693.492 424.75C693.192 424.45 693.042 424.083 693.042 423.65C693.042 423.217 693.192 422.85 693.492 422.55C693.809 422.233 694.201 422.075 694.667 422.075C695.134 422.075 695.517 422.225 695.817 422.525C696.134 422.808 696.292 423.167 696.292 423.6C696.292 424.05 696.134 424.433 695.817 424.75C695.517 425.05 695.134 425.2 694.667 425.2ZM712.95 422.45V441H710.65V438.9C710.116 439.633 709.441 440.192 708.625 440.575C707.808 440.958 706.908 441.15 705.925 441.15C704.641 441.15 703.491 440.867 702.475 440.3C701.458 439.733 700.658 438.942 700.075 437.925C699.508 436.892 699.225 435.708 699.225 434.375C699.225 433.042 699.508 431.867 700.075 430.85C700.658 429.833 701.458 429.042 702.475 428.475C703.491 427.908 704.641 427.625 705.925 427.625C706.875 427.625 707.75 427.808 708.55 428.175C709.35 428.525 710.016 429.05 710.55 429.75V422.45H712.95ZM706.125 439.05C706.958 439.05 707.716 438.858 708.4 438.475C709.083 438.075 709.616 437.525 710 436.825C710.383 436.108 710.575 435.292 710.575 434.375C710.575 433.458 710.383 432.65 710 431.95C709.616 431.233 709.083 430.683 708.4 430.3C707.716 429.917 706.958 429.725 706.125 429.725C705.275 429.725 704.508 429.917 703.825 430.3C703.158 430.683 702.625 431.233 702.225 431.95C701.841 432.65 701.65 433.458 701.65 434.375C701.65 435.292 701.841 436.108 702.225 436.825C702.625 437.525 703.158 438.075 703.825 438.475C704.508 438.858 705.275 439.05 706.125 439.05ZM729.991 422.45V441H727.691V438.9C727.157 439.633 726.482 440.192 725.666 440.575C724.849 440.958 723.949 441.15 722.966 441.15C721.682 441.15 720.532 440.867 719.516 440.3C718.499 439.733 717.699 438.942 717.116 437.925C716.549 436.892 716.266 435.708 716.266 434.375C716.266 433.042 716.549 431.867 717.116 430.85C717.699 429.833 718.499 429.042 719.516 428.475C720.532 427.908 721.682 427.625 722.966 427.625C723.916 427.625 724.791 427.808 725.591 428.175C726.391 428.525 727.057 429.05 727.591 429.75V422.45H729.991ZM723.166 439.05C723.999 439.05 724.757 438.858 725.441 438.475C726.124 438.075 726.657 437.525 727.041 436.825C727.424 436.108 727.616 435.292 727.616 434.375C727.616 433.458 727.424 432.65 727.041 431.95C726.657 431.233 726.124 430.683 725.441 430.3C724.757 429.917 723.999 429.725 723.166 429.725C722.316 429.725 721.549 429.917 720.866 430.3C720.199 430.683 719.666 431.233 719.266 431.95C718.882 432.65 718.691 433.458 718.691 434.375C718.691 435.292 718.882 436.108 719.266 436.825C719.666 437.525 720.199 438.075 720.866 438.475C721.549 438.858 722.316 439.05 723.166 439.05ZM734.532 422.45H736.932V441H734.532V422.45ZM753.489 434.45C753.489 434.633 753.473 434.875 753.439 435.175H742.689C742.839 436.342 743.348 437.283 744.214 438C745.098 438.7 746.189 439.05 747.489 439.05C749.073 439.05 750.348 438.517 751.314 437.45L752.639 439C752.039 439.7 751.289 440.233 750.389 440.6C749.506 440.967 748.514 441.15 747.414 441.15C746.014 441.15 744.773 440.867 743.689 440.3C742.606 439.717 741.764 438.908 741.164 437.875C740.581 436.842 740.289 435.675 740.289 434.375C740.289 433.092 740.573 431.933 741.139 430.9C741.723 429.867 742.514 429.067 743.514 428.5C744.531 427.917 745.673 427.625 746.939 427.625C748.206 427.625 749.331 427.917 750.314 428.5C751.314 429.067 752.089 429.867 752.639 430.9C753.206 431.933 753.489 433.117 753.489 434.45ZM746.939 429.65C745.789 429.65 744.823 430 744.039 430.7C743.273 431.4 742.823 432.317 742.689 433.45H751.189C751.056 432.333 750.598 431.425 749.814 430.725C749.048 430.008 748.089 429.65 746.939 429.65ZM780.111 441L780.086 428.25L773.761 438.875H772.611L766.286 428.325V441H763.886V423.5H765.936L773.236 435.8L780.436 423.5H782.486L782.511 441H780.111ZM792.238 427.625C794.071 427.625 795.471 428.075 796.438 428.975C797.421 429.875 797.913 431.217 797.913 433V441H795.638V439.25C795.238 439.867 794.663 440.342 793.913 440.675C793.179 440.992 792.304 441.15 791.288 441.15C789.804 441.15 788.613 440.792 787.713 440.075C786.829 439.358 786.388 438.417 786.388 437.25C786.388 436.083 786.813 435.15 787.663 434.45C788.513 433.733 789.863 433.375 791.713 433.375H795.513V432.9C795.513 431.867 795.213 431.075 794.613 430.525C794.013 429.975 793.129 429.7 791.963 429.7C791.179 429.7 790.413 429.833 789.663 430.1C788.913 430.35 788.279 430.692 787.763 431.125L786.763 429.325C787.446 428.775 788.263 428.358 789.213 428.075C790.163 427.775 791.171 427.625 792.238 427.625ZM791.688 439.3C792.604 439.3 793.396 439.1 794.063 438.7C794.729 438.283 795.213 437.7 795.513 436.95V435.1H791.813C789.779 435.1 788.763 435.783 788.763 437.15C788.763 437.817 789.021 438.342 789.538 438.725C790.054 439.108 790.771 439.3 791.688 439.3ZM809.429 427.625C811.112 427.625 812.446 428.117 813.429 429.1C814.429 430.067 814.929 431.492 814.929 433.375V441H812.529V433.65C812.529 432.367 812.221 431.4 811.604 430.75C810.987 430.1 810.104 429.775 808.954 429.775C807.654 429.775 806.629 430.158 805.879 430.925C805.129 431.675 804.754 432.758 804.754 434.175V441H802.354V427.75H804.654V429.75C805.137 429.067 805.787 428.542 806.604 428.175C807.437 427.808 808.379 427.625 809.429 427.625ZM824.196 427.625C826.029 427.625 827.429 428.075 828.396 428.975C829.379 429.875 829.871 431.217 829.871 433V441H827.596V439.25C827.196 439.867 826.621 440.342 825.871 440.675C825.137 440.992 824.262 441.15 823.246 441.15C821.762 441.15 820.571 440.792 819.671 440.075C818.787 439.358 818.346 438.417 818.346 437.25C818.346 436.083 818.771 435.15 819.621 434.45C820.471 433.733 821.821 433.375 823.671 433.375H827.471V432.9C827.471 431.867 827.171 431.075 826.571 430.525C825.971 429.975 825.087 429.7 823.921 429.7C823.137 429.7 822.371 429.833 821.621 430.1C820.871 430.35 820.237 430.692 819.721 431.125L818.721 429.325C819.404 428.775 820.221 428.358 821.171 428.075C822.121 427.775 823.129 427.625 824.196 427.625ZM823.646 439.3C824.562 439.3 825.354 439.1 826.021 438.7C826.687 438.283 827.171 437.7 827.471 436.95V435.1H823.771C821.737 435.1 820.721 435.783 820.721 437.15C820.721 437.817 820.979 438.342 821.496 438.725C822.012 439.108 822.729 439.3 823.646 439.3ZM847.06 427.75V439.2C847.06 441.517 846.485 443.225 845.335 444.325C844.185 445.442 842.469 446 840.185 446C838.935 446 837.744 445.825 836.61 445.475C835.477 445.142 834.56 444.658 833.86 444.025L835.01 442.175C835.627 442.708 836.385 443.125 837.285 443.425C838.202 443.742 839.144 443.9 840.11 443.9C841.66 443.9 842.802 443.533 843.535 442.8C844.285 442.067 844.66 440.95 844.66 439.45V438.4C844.094 439.083 843.394 439.6 842.56 439.95C841.744 440.283 840.852 440.45 839.885 440.45C838.619 440.45 837.469 440.183 836.435 439.65C835.419 439.1 834.619 438.342 834.035 437.375C833.452 436.392 833.16 435.275 833.16 434.025C833.16 432.775 833.452 431.667 834.035 430.7C834.619 429.717 835.419 428.958 836.435 428.425C837.469 427.892 838.619 427.625 839.885 427.625C840.885 427.625 841.81 427.808 842.66 428.175C843.527 428.542 844.235 429.083 844.785 429.8V427.75H847.06ZM840.16 438.35C841.027 438.35 841.802 438.167 842.485 437.8C843.185 437.433 843.727 436.925 844.11 436.275C844.51 435.608 844.71 434.858 844.71 434.025C844.71 432.742 844.285 431.708 843.435 430.925C842.585 430.125 841.494 429.725 840.16 429.725C838.81 429.725 837.71 430.125 836.86 430.925C836.01 431.708 835.585 432.742 835.585 434.025C835.585 434.858 835.777 435.608 836.16 436.275C836.56 436.925 837.102 437.433 837.785 437.8C838.485 438.167 839.277 438.35 840.16 438.35ZM863.621 434.45C863.621 434.633 863.604 434.875 863.571 435.175H852.821C852.971 436.342 853.479 437.283 854.346 438C855.229 438.7 856.321 439.05 857.621 439.05C859.204 439.05 860.479 438.517 861.446 437.45L862.771 439C862.171 439.7 861.421 440.233 860.521 440.6C859.638 440.967 858.646 441.15 857.546 441.15C856.146 441.15 854.904 440.867 853.821 440.3C852.738 439.717 851.896 438.908 851.296 437.875C850.713 436.842 850.421 435.675 850.421 434.375C850.421 433.092 850.704 431.933 851.271 430.9C851.854 429.867 852.646 429.067 853.646 428.5C854.663 427.917 855.804 427.625 857.071 427.625C858.338 427.625 859.463 427.917 860.446 428.5C861.446 429.067 862.221 429.867 862.771 430.9C863.338 431.933 863.621 433.117 863.621 434.45ZM857.071 429.65C855.921 429.65 854.954 430 854.171 430.7C853.404 431.4 852.954 432.317 852.821 433.45H861.321C861.188 432.333 860.729 431.425 859.946 430.725C859.179 430.008 858.221 429.65 857.071 429.65ZM883.529 427.625C885.195 427.625 886.512 428.108 887.479 429.075C888.462 430.042 888.954 431.475 888.954 433.375V441H886.554V433.65C886.554 432.367 886.254 431.4 885.654 430.75C885.07 430.1 884.229 429.775 883.129 429.775C881.912 429.775 880.945 430.158 880.229 430.925C879.512 431.675 879.154 432.758 879.154 434.175V441H876.754V433.65C876.754 432.367 876.454 431.4 875.854 430.75C875.27 430.1 874.429 429.775 873.329 429.775C872.112 429.775 871.145 430.158 870.429 430.925C869.712 431.675 869.354 432.758 869.354 434.175V441H866.954V427.75H869.254V429.725C869.737 429.042 870.37 428.525 871.154 428.175C871.937 427.808 872.829 427.625 873.829 427.625C874.862 427.625 875.779 427.833 876.579 428.25C877.379 428.667 877.995 429.275 878.429 430.075C878.929 429.308 879.62 428.708 880.504 428.275C881.404 427.842 882.412 427.625 883.529 427.625ZM905.418 434.45C905.418 434.633 905.401 434.875 905.368 435.175H894.618C894.768 436.342 895.276 437.283 896.143 438C897.026 438.7 898.118 439.05 899.418 439.05C901.001 439.05 902.276 438.517 903.243 437.45L904.568 439C903.968 439.7 903.218 440.233 902.318 440.6C901.435 440.967 900.443 441.15 899.343 441.15C897.943 441.15 896.701 440.867 895.618 440.3C894.535 439.717 893.693 438.908 893.093 437.875C892.51 436.842 892.218 435.675 892.218 434.375C892.218 433.092 892.501 431.933 893.068 430.9C893.651 429.867 894.443 429.067 895.443 428.5C896.46 427.917 897.601 427.625 898.868 427.625C900.135 427.625 901.26 427.917 902.243 428.5C903.243 429.067 904.018 429.867 904.568 430.9C905.135 431.933 905.418 433.117 905.418 434.45ZM898.868 429.65C897.718 429.65 896.751 430 895.968 430.7C895.201 431.4 894.751 432.317 894.618 433.45H903.118C902.985 432.333 902.526 431.425 901.743 430.725C900.976 430.008 900.018 429.65 898.868 429.65ZM915.826 427.625C917.509 427.625 918.842 428.117 919.826 429.1C920.826 430.067 921.326 431.492 921.326 433.375V441H918.926V433.65C918.926 432.367 918.617 431.4 918.001 430.75C917.384 430.1 916.501 429.775 915.351 429.775C914.051 429.775 913.026 430.158 912.276 430.925C911.526 431.675 911.151 432.758 911.151 434.175V441H908.751V427.75H911.051V429.75C911.534 429.067 912.184 428.542 913.001 428.175C913.834 427.808 914.776 427.625 915.826 427.625ZM933.217 440.225C932.867 440.525 932.434 440.758 931.917 440.925C931.401 441.075 930.867 441.15 930.317 441.15C928.984 441.15 927.951 440.792 927.217 440.075C926.484 439.358 926.117 438.333 926.117 437V429.725H923.867V427.75H926.117V424.85H928.517V427.75H932.317V429.725H928.517V436.9C928.517 437.617 928.692 438.167 929.042 438.55C929.409 438.933 929.926 439.125 930.592 439.125C931.326 439.125 931.951 438.917 932.467 438.5L933.217 440.225Z" fill="black"/>
<line x1="350" y1="85.5" x2="410" y2="85.5" stroke="black"/>
<line x1="447" y1="258.5" x2="507" y2="258.5" stroke="black"/>
<line x1="548" y1="431.5" x2="608" y2="431.5" stroke="black"/>
</svg>
